<svg
	xmlns="http://www.w3.org/2000/svg"
	xmlns:xlink="http://www.w3.org/1999/xlink" viewBox="0 0 595.27 841.89">
	<defs>
		<style>.cls-1{fill:none;}.cls-2{isolation:isolate;}.cls-3{clip-path:url(#clip-path);}.cls-4{clip-path:url(#clip-path-2);}.cls-5{fill:url(#radial-gradient);}.cls-6{font-size:24px;}.cls-25,.cls-6,.cls-8{fill:#f9c02d;}.cls-25,.cls-6{font-family:Sansation-Bold, Sansation;font-weight:700;}.cls-7{font-size:7.61px;font-family:Sansation-Regular, Sansation;}.cls-12,.cls-7{fill:#fff;}.cls-9{mix-blend-mode:multiply;}.cls-10{clip-path:url(#clip-path-4);}.cls-11{fill:#a37b28;}.cls-13{fill:#f3975f;}.cls-14{fill:#a65335;}.cls-15{fill:#89b5cc;}.cls-16{fill:#3f6070;}.cls-17{fill:#25b1a4;}.cls-18{fill:#a3b83a;}.cls-19{fill:#738012;}.cls-20{clip-path:url(#clip-path-9);}.cls-21{fill:#248577;}.cls-22{clip-path:url(#clip-path-10);}.cls-23{fill:#417d31;}.cls-24{fill:#aab819;}.cls-25{font-size:28px;}.cls-26{letter-spacing:-0.07em;}</style>
		<clipPath id="clip-path">
			<rect class="cls-1" width="595.28" height="841.89"/>
		</clipPath>
		<clipPath id="clip-path-2">
			<rect class="cls-1" width="595.28" height="841.89"/>
		</clipPath>
		<radialGradient id="radial-gradient" cx="0" cy="841.89" r="1" gradientTransform="matrix(378.52, 0, 0, -601.85, 296.9, 507111.08)" gradientUnits="userSpaceOnUse">
			<stop offset="0" stop-color="#4e84ae"/>
			<stop offset="0.01" stop-color="#4e84ae"/>
			<stop offset="0.08" stop-color="#4e81a4"/>
			<stop offset="1" stop-color="#004f81"/>
		</radialGradient>
		<clipPath id="clip-path-4">
			<rect class="cls-1" x="185.82" y="708.37" width="14.82" height="20.57"/>
		</clipPath>
		<clipPath id="clip-path-9">
			<rect class="cls-1" x="233.72" y="709.33" width="25.52" height="16.56"/>
		</clipPath>
		<clipPath id="clip-path-10">
			<rect class="cls-1" x="422.35" y="53.05" width="137.16" height="46.64"/>
		</clipPath>
	</defs>
	<title>cover-page_2</title>
	<g class="cls-2">
		<g id="Layer_2" data-name="Layer 2">
			<g id="Layer_1-2" data-name="Layer 1">
				<g class="cls-3">
					<g class="cls-4">
						<rect class="cls-5" width="595.27" height="841.89"/>
					</g>
					<text class="cls-7" transform="translate(179.73 753.28)">Reduce</text>
					<text class="cls-7" transform="translate(183.42 761.98)">costs</text>
					<text class="cls-7" transform="translate(235.96 753.28)">Meter</text>
					<text class="cls-7" transform="translate(227.06 761.98)">monitoring</text>
					<text class="cls-7" transform="translate(286.75 753.28)">Access</text>
					<text class="cls-7" transform="translate(282.44 761.98)">anywhere</text>
					<text class="cls-7" transform="translate(342 753.28)">Save</text>
					<text class="cls-7" transform="translate(342.78 761.98)">time</text>
					<text class="cls-7" transform="translate(397.21 753.08)">Cut</text>
					<text class="cls-7" transform="translate(385.44 762.31)">emissions</text>
					<g class="cls-3">
						<path class="cls-8" d="M192.56,699.38a18.5,18.5,0,1,0,18.5,18.5,18.49,18.49,0,0,0-18.5-18.5"/>
						<g class="cls-9">
							<g class="cls-10">
								<path class="cls-11" d="M194.25,709.37q-7,0-7,5.2a10.14,10.14,0,0,0,1,4.07,9.53,9.53,0,0,1,1,3.67q0,2-2.35,2.91v2.67a9.28,9.28,0,0,1,3.61-.7,12.7,12.7,0,0,1,3.09.41,10.49,10.49,0,0,0,2.54.34,6.11,6.11,0,0,0,3.58-1.05V724a5.8,5.8,0,0,1-3.32,1.23A4,4,0,0,1,195,725a8.82,8.82,0,0,0-2.68-.54,3.23,3.23,0,0,0-.61.05q.81-.52.81-2.24a7.34,7.34,0,0,0-.49-2.57h4v-2.65h-4.87a5,5,0,0,1-.44-2.51q0-2.53,3.45-2.53a8.37,8.37,0,0,1,5.47,1.64v-3a9.91,9.91,0,0,0-5.38-1.26"/>
							</g>
						</g>
						<path class="cls-12" d="M198.26,712.88a8.37,8.37,0,0,0-5.47-1.64q-3.45,0-3.45,2.53a5,5,0,0,0,.44,2.51h4.86v2.65h-4a7.35,7.35,0,0,1,.49,2.57q0,1.73-.81,2.24a6.93,6.93,0,0,1,3.3.49,5,5,0,0,0,4.59-1v2.9q-2.37,1.65-6.12.71a10.43,10.43,0,0,0-6.7.29v-2.67q2.35-.95,2.34-2.91a9.52,9.52,0,0,0-1-3.67,10.15,10.15,0,0,1-1-4.07q0-5.21,7-5.21a9.92,9.92,0,0,1,5.38,1.26Z"/>
						<path class="cls-13" d="M316.46,717.88A18.5,18.5,0,1,1,298,699.38a18.5,18.5,0,0,1,18.5,18.49"/>
						<path class="cls-14" d="M304.53,706.9H293.28a1.06,1.06,0,0,0-1.06,1.06v21.74a1.06,1.06,0,0,0,1.06,1.06h11.25a1.06,1.06,0,0,0,1.06-1.06V708a1.06,1.06,0,0,0-1.06-1.06m-11,1.23h10.81v18.68H293.5Zm5.41,21.65a1,1,0,1,1,1-1,1,1,0,0,1-1,1"/>
					</g>
					<rect class="cls-14" x="294.64" y="709.31" width="2.3" height="2.3"/>
					<rect class="cls-14" x="297.75" y="709.31" width="2.3" height="2.3"/>
					<rect class="cls-14" x="300.87" y="709.31" width="2.3" height="2.3"/>
					<rect class="cls-14" x="294.64" y="712.79" width="2.3" height="2.3"/>
					<rect class="cls-14" x="297.75" y="712.79" width="2.3" height="2.3"/>
					<rect class="cls-14" x="300.87" y="712.79" width="2.3" height="2.3"/>
					<rect class="cls-14" x="294.64" y="716.27" width="2.3" height="2.3"/>
					<rect class="cls-14" x="297.75" y="716.27" width="2.3" height="2.3"/>
					<rect class="cls-14" x="300.87" y="716.27" width="2.3" height="2.3"/>
					<g class="cls-3">
						<path class="cls-12" d="M303.37,725.86H292.56V707.18h10.81Zm-5.41,3a1,1,0,1,1,1-1,1,1,0,0,1-1,1M303.58,706H292.34a1.06,1.06,0,0,0-1.06,1.06v21.74a1.06,1.06,0,0,0,1.06,1.06h11.25a1.06,1.06,0,0,0,1.06-1.06V707a1.06,1.06,0,0,0-1.06-1.06"/>
					</g>
					<rect class="cls-12" x="293.69" y="708.36" width="2.3" height="2.3"/>
					<rect class="cls-12" x="296.81" y="708.36" width="2.3" height="2.3"/>
					<rect class="cls-12" x="299.93" y="708.36" width="2.3" height="2.3"/>
					<rect class="cls-12" x="293.69" y="711.84" width="2.3" height="2.3"/>
					<rect class="cls-12" x="296.81" y="711.84" width="2.3" height="2.3"/>
					<rect class="cls-12" x="299.93" y="711.84" width="2.3" height="2.3"/>
					<rect class="cls-12" x="293.69" y="715.32" width="2.3" height="2.3"/>
					<rect class="cls-12" x="296.81" y="715.32" width="2.3" height="2.3"/>
					<rect class="cls-12" x="299.93" y="715.32" width="2.3" height="2.3"/>
					<g class="cls-3">
						<path class="cls-15" d="M369.16,717.88a18.5,18.5,0,1,1-18.5-18.49,18.49,18.49,0,0,1,18.5,18.49"/>
						<path class="cls-16" d="M351.61,707.42A11.41,11.41,0,1,0,363,718.83a11.42,11.42,0,0,0-11.41-11.41m0,20.93a9.52,9.52,0,1,1,9.52-9.52,9.53,9.53,0,0,1-9.52,9.52"/>
					</g>
					<rect class="cls-16" x="351.17" y="710.37" width="0.88" height="2.48"/>
					<rect class="cls-16" x="347.75" y="711.33" width="0.5" height="2.48" transform="translate(-309.88 269.79) rotate(-30.03)"/>
					<rect class="cls-16" x="345.11" y="713.98" width="0.5" height="2.48" transform="translate(-446.69 656.31) rotate(-59.97)"/>
					<rect class="cls-16" x="343.15" y="718.39" width="2.48" height="0.88"/>
					<rect class="cls-16" x="344.12" y="722.19" width="2.48" height="0.5" transform="translate(-314.99 269.53) rotate(-30.01)"/>
					<rect class="cls-16" x="346.76" y="724.83" width="2.48" height="0.5" transform="translate(-453.94 663.99) rotate(-60.01)"/>
					<rect class="cls-16" x="351.17" y="724.81" width="0.88" height="2.48"/>
					<rect class="cls-16" x="354.97" y="723.84" width="0.5" height="2.48" transform="translate(-315.17 275.07) rotate(-30.03)"/>
					<rect class="cls-16" x="357.61" y="721.2" width="0.5" height="2.48" transform="translate(-446.69 670.74) rotate(-59.97)"/>
					<rect class="cls-16" x="357.59" y="718.39" width="2.48" height="0.88"/>
					<rect class="cls-16" x="356.62" y="714.96" width="2.48" height="0.5" transform="translate(-309.62 274.68) rotate(-29.99)"/>
					<rect class="cls-16" x="353.98" y="712.32" width="2.48" height="0.5" transform="translate(-439.49 663.83) rotate(-59.99)"/>
					<polygon class="cls-16" points="353.9 710.96 351.38 717.99 348.55 715.7 347.91 716.48 351.29 719.22 352.08 719 354.85 711.3 353.9 710.96"/>
					<g class="cls-3">
						<path class="cls-12" d="M350.66,708.36a9.52,9.52,0,1,0,9.52,9.52,9.53,9.53,0,0,0-9.52-9.52m0,20.93a11.41,11.41,0,1,1,11.41-11.41,11.42,11.42,0,0,1-11.41,11.41"/>
					</g>
					<rect class="cls-12" x="350.22" y="709.42" width="0.88" height="2.48"/>
					<rect class="cls-12" x="346.8" y="710.39" width="0.5" height="2.48" transform="translate(-309.27 268.8) rotate(-29.99)"/>
					<rect class="cls-12" x="344.16" y="713.03" width="0.5" height="2.48" transform="translate(-446.37 655.33) rotate(-59.99)"/>
					<rect class="cls-12" x="342.2" y="717.44" width="2.48" height="0.88"/>
					<rect class="cls-12" x="343.17" y="721.24" width="2.48" height="0.5" transform="translate(-314.83 269.2) rotate(-30.03)"/>
					<rect class="cls-12" x="345.81" y="723.88" width="2.48" height="0.5" transform="translate(-453.56 662.25) rotate(-59.97)"/>
					<rect class="cls-12" x="350.22" y="723.86" width="0.88" height="2.48"/>
					<rect class="cls-12" x="354.02" y="722.89" width="0.5" height="2.48" transform="translate(-314.56 274.09) rotate(-29.99)"/>
					<rect class="cls-12" x="356.66" y="720.25" width="0.5" height="2.48" transform="translate(-446.38 669.93) rotate(-60.01)"/>
					<rect class="cls-12" x="356.64" y="717.44" width="2.48" height="0.88"/>
					<rect class="cls-12" x="355.68" y="714.02" width="2.48" height="0.5" transform="translate(-309.54 274.49) rotate(-30.03)"/>
					<rect class="cls-12" x="353.03" y="711.37" width="2.48" height="0.5" transform="translate(-439.13 662.25) rotate(-59.97)"/>
					<polygon class="cls-12" points="350.35 718.27 346.96 715.53 347.6 714.75 350.43 717.04 352.95 710.01 353.9 710.36 351.14 718.05 350.35 718.27"/>
					<g class="cls-3">
						<path class="cls-17" d="M263.76,717.88a18.5,18.5,0,1,1-18.5-18.49,18.5,18.5,0,0,1,18.5,18.49"/>
						<path class="cls-18" d="M403.32,699.21a18.7,18.7,0,1,0,18.7,18.7,18.7,18.7,0,0,0-18.7-18.7"/>
						<path class="cls-19" d="M406,727.4a62.06,62.06,0,0,1-10.64-16.46S408,712.45,406,727.37"/>
						<path class="cls-19" d="M394.1,711.49c-2.67,12.71,7,15.56,10.32,16.15a62.74,62.74,0,0,1-10.32-16.15"/>
						<path class="cls-19" d="M415.32,715.05c-1.93,2.53-6.29,8.52-7.67,12.59,7-1.46,7.64-10.07,7.67-12.59"/>
						<path class="cls-19" d="M413.9,714.72c-10.06,2.36-8.55,10.32-7.87,12.65,1.66-4.4,6.18-10.46,7.87-12.65"/>
						<path class="cls-12" d="M404.71,725.43A62,62,0,0,1,394.07,709s12.64,1.51,10.66,16.43"/>
						<path class="cls-12" d="M392.81,709.52c-2.67,12.71,7,15.56,10.32,16.15a62.74,62.74,0,0,1-10.32-16.15"/>
						<path class="cls-12" d="M414,713.08c-1.93,2.53-6.29,8.52-7.67,12.59,7-1.46,7.64-10.07,7.67-12.59"/>
						<path class="cls-12" d="M412.61,712.75c-10.06,2.36-8.55,10.32-7.87,12.65,1.65-4.4,6.18-10.46,7.87-12.65"/>
						<g class="cls-9">
							<g class="cls-20">
								<path class="cls-21" d="M246.48,710.33a12,12,0,0,0-11.76,12.17v2.4h23.52v-2.4a12,12,0,0,0-11.76-12.17M237,722.51a9.67,9.67,0,0,1,9.49-9.82,9.24,9.24,0,0,1,5.86,2.11l.11-.12a.44.44,0,0,1,.64,0,.48.48,0,0,1,0,.67l-.07.07a10,10,0,0,1,2.94,7.1h-1.86a8,8,0,0,0-2.4-5.74l-3.63,3.76a1.77,1.77,0,0,1-.27,2.06,1.63,1.63,0,0,1-2.36,0,1.77,1.77,0,0,1,0-2.44,1.62,1.62,0,0,1,2-.29l3.57-3.7a7.43,7.43,0,0,0-4.54-1.55,7.78,7.78,0,0,0-7.63,7.9Z"/>
							</g>
						</g>
						<path class="cls-12" d="M252.71,721a8,8,0,0,0-2.4-5.74l-3.63,3.76a1.77,1.77,0,0,1-.27,2.06,1.63,1.63,0,0,1-2.36,0,1.77,1.77,0,0,1,0-2.44,1.62,1.62,0,0,1,2-.29l3.57-3.7a7.43,7.43,0,0,0-4.54-1.55,7.78,7.78,0,0,0-7.63,7.9h-1.86a9.67,9.67,0,0,1,9.49-9.82,9.24,9.24,0,0,1,5.86,2.11l.11-.12a.44.44,0,0,1,.64,0,.48.48,0,0,1,0,.67l-.07.07a10,10,0,0,1,2.94,7.1Zm-7.63-12.17A12,12,0,0,0,233.31,721v2.39h23.52V721a12,12,0,0,0-11.76-12.17"/>
					</g>
				</g>
			</g>
		</g>
	</g>
</svg>
