<svg xmlns="http://www.w3.org/2000/svg" viewBox="0 0 70.87 23.74"><defs><style>.cls-1{fill:#646363;}.cls-2{fill:#427c30;}.cls-3{fill:#a9b719;}</style></defs><title>eticom-header-logo</title><g id="Layer_2" data-name="Layer 2"><g id="Layer_1-2" data-name="Layer 1"><path class="cls-1" d="M2.32,16H9.43q-.08-3.4-3.38-3.4-3.5,0-3.73,3.4M6,10.79q5.61,0,5.61,5.47a13.29,13.29,0,0,1-.11,1.67H2.32q0,4,4.71,4a14.62,14.62,0,0,0,4-.49v1.85a15.7,15.7,0,0,1-4.23.49Q0,23.74,0,17.11q0-6.33,6-6.33"/><path class="cls-1" d="M13.75,8.69H15.2l.5,2.1h3.56v1.85H16.07v7.44q0,1.81,1.59,1.81h1.6v1.85h-2.2q-3.31,0-3.3-3.49Z"/><rect class="cls-1" x="21.43" y="10.79" width="2.32" height="12.96"/><path class="cls-1" d="M36.62,23.37a15.84,15.84,0,0,1-3.51.37q-7,0-7-6.72,0-6.23,7-6.23a15.84,15.84,0,0,1,3.51.37V13A16.41,16.41,0,0,0,33,12.64q-4.57,0-4.57,4.38,0,4.87,4.57,4.87a16.4,16.4,0,0,0,3.63-.37Z"/><path class="cls-1" d="M44.17,21.89q3.95,0,3.94-4.68t-3.94-4.58q-3.94,0-3.94,4.58t3.94,4.68m-6.26-4.63q0-6.48,6.26-6.48t6.26,6.48q0,6.47-6.26,6.47t-6.26-6.47"/><path class="cls-1" d="M52,23.74v-13h1.56L54,12.41a6.19,6.19,0,0,1,4.12-1.63q2.85,0,3.89,1.78a6.79,6.79,0,0,1,4.35-1.78q4.53,0,4.53,4.92v8H68.55V15.59q0-2.9-2.48-2.9a4.78,4.78,0,0,0-3.47,1.68v9.38H60.29V15.62q0-2.94-2.45-2.94a4.64,4.64,0,0,0-3.49,1.68v9.38Z"/><path class="cls-2" d="M34.45,0c-10.81,0-12,8.25-12.07,9.7h0C22.49,8.52,23.47,3,32.13,3h28l2.78-3Z"/><path class="cls-3" d="M60.09,3h-28c-8.65,0-9.63,5.5-9.75,6.68h.06c.3-3.33,7.34-3.6,10.05-3.6H57.26L60.14,3Z"/></g></g></svg>