<svg xmlns="http://www.w3.org/2000/svg" viewBox="0 0 42.52 42.52"><defs><style>.cls-1{fill:#44b070;}.cls-2{fill:#299c56;}.cls-3{fill:#fff;}</style></defs><title>icon-benefits-5</title><g id="Layer_2" data-name="Layer 2"><g id="Layer_1-2" data-name="Layer 1"><path class="cls-1" d="M42.52,21.26A21.26,21.26,0,1,1,21.26,0,21.26,21.26,0,0,1,42.52,21.26"/><path class="cls-2" d="M24.35,15.43a1.7,1.7,0,1,1,1.7-1.7,1.7,1.7,0,0,1-1.7,1.7m-10-6.59V24.61l4.25.25L20,22.54l.45-4.37-1.37.27-2,3.1a.87.87,0,0,1-1.46-.93l2.17-3.42a.87.87,0,0,1,.56-.39l5-1a.87.87,0,0,1,.85.31l2.66,3.32,3.31-1.37a.87.87,0,0,1,.66,1.6L26.91,21.3a.87.87,0,0,1-1-.26l-1.4-1.75-.6,3,2.33,3a1,1,0,0,1,.2.48L27,30.62a1,1,0,0,1-.86,1.11H26a1,1,0,0,1-1-.87l-.58-4.6L22,23,20,26.4a1,1,0,0,1-.85.48h-.06l-4.73-.28v5.14l-3.8,2.81H22.71l2-2.41H26.8l-1.63,2.41h5.34l2.63-2.81V8.84Z"/><path class="cls-3" d="M23.2,14.57a1.7,1.7,0,1,1,1.7-1.7,1.7,1.7,0,0,1-1.7,1.7M13.17,8V23.74l4.25.25,1.41-2.32.45-4.37-1.37.27-2,3.1a.87.87,0,0,1-1.46-.93l2.17-3.42a.87.87,0,0,1,.56-.39l5-1a.87.87,0,0,1,.85.31l2.66,3.32L29,17.21a.87.87,0,0,1,.66,1.6l-3.91,1.62a.87.87,0,0,1-1-.26l-1.4-1.75-.6,3,2.33,3a1,1,0,0,1,.2.48l.61,4.87A1,1,0,0,1,25,30.86H24.9a1,1,0,0,1-1-.87l-.58-4.6-2.49-3.23-2,3.35A1,1,0,0,1,18,26h-.06l-4.73-.28v5.14l-3.8,2.81H21.56l2-2.41h2.13L24,33.68h5.34L32,30.87V8Z"/></g></g></svg>