<svg xmlns="http://www.w3.org/2000/svg" viewBox="0 0 42.59 42.59"><defs><style>.cls-1{fill:#9bd5e0;}.cls-2{fill:#f8bd39;}.cls-3{fill:#7db0c7;}.cls-4{fill:#53aba9;}.cls-5{fill:#fff;}.cls-6{fill:#4f82a1;}.cls-7{fill:#c99407;}</style></defs><title>icon-benefits-3</title><g id="Layer_2" data-name="Layer 2"><g id="Layer_1-2" data-name="Layer 1"><path class="cls-1" d="M39.73,10.65A21.29,21.29,0,1,0,21.29,42.59V21.29Z"/><path class="cls-2" d="M42.59,21.29a21.2,21.2,0,0,0-2.86-10.65L21.29,21.29V42.59A21.29,21.29,0,0,0,42.59,21.29"/><path class="cls-3" d="M0,21.29A21.2,21.2,0,0,1,2.85,10.65L21.29,21.29V42.59A21.29,21.29,0,0,1,0,21.29"/><path class="cls-4" d="M20,12c-.75-1,1.6-4.14,1.6-4.14L22.27,10c.7,2.54-1.5,3.1-2.25,2.07m5.41.82a10.41,10.41,0,0,0-1.59-4.16,33.37,33.37,0,0,1-2.08-4.53,33.64,33.64,0,0,1-2.08,4.53,10.39,10.39,0,0,0-1.59,4.16c0,.67-.06,3.58,3.58,3.58h.18c3.64,0,3.58-2.91,3.58-3.58"/><path class="cls-5" d="M19.09,11.48c-.75-1,1.6-4.14,1.6-4.14l.65,2.07c.7,2.54-1.5,3.1-2.25,2.07m5.41.82a10.41,10.41,0,0,0-1.59-4.16,33.31,33.31,0,0,1-2.08-4.53,33.58,33.58,0,0,1-2.08,4.53,10.39,10.39,0,0,0-1.59,4.16c0,.67-.06,3.58,3.58,3.58h.18c3.64,0,3.58-2.91,3.58-3.58"/><path class="cls-6" d="M11.27,33.53s-1.58-4.12,1.92-5.7c0,0-.38,1.51.45,2a2.5,2.5,0,0,1,.72,3.71s2.71-.21,2.71-3.57a4,4,0,0,0-1-2.61c-1-1-3.44-3-2.27-5.53,0,0-4.84,3.64-4.84,8.35,0,0,.24,2.75,2.34,3.36"/><path class="cls-5" d="M10.47,32.74S8.89,28.62,12.4,27c0,0-.38,1.51.45,2a2.5,2.5,0,0,1,.72,3.71s2.71-.21,2.71-3.57a4,4,0,0,0-1-2.61c-1-1-3.44-3-2.27-5.53,0,0-4.84,3.64-4.84,8.35,0,0,.24,2.75,2.34,3.36"/><polygon class="cls-7" points="32.28 28.28 34.61 28.28 32.96 21.67 28.78 21.67 31.03 25.8 27.59 25.8 33.42 33.69 32.28 28.28"/><polygon class="cls-5" points="31.27 27.5 33.6 27.5 31.94 20.89 27.77 20.89 30.02 25.02 26.57 25.02 32.4 32.91 31.27 27.5"/></g></g></svg>