<?xml version="1.0" encoding="utf-8"?>
<!-- Generator: Adobe Illustrator 21.1.0, SVG Export Plug-In . SVG Version: 6.00 Build 0)  -->
<svg version="1.1" id="Layer_1" xmlns="http://www.w3.org/2000/svg" xmlns:xlink="http://www.w3.org/1999/xlink" x="0px" y="0px"
	 viewBox="0 0 42.5 42.5" style="enable-background:new 0 0 42.5 42.5;" xml:space="preserve">
<style type="text/css">
	.st0{fill:#26B2A3;}
	.st1{clip-path:url(#SVGID_2_);}
	.st2{fill:#2A9782;}
	.st3{fill:#FFFFFF;}
</style>
<title>icon-benefits-6</title>
<g>
	<g id="Layer_2">
		<g id="Layer_1-2">
			<path class="st0" d="M42.5,21.3c0,11.7-9.5,21.3-21.3,21.3S0,33,0,21.3S9.5,0,21.3,0c0,0,0,0,0,0C33,0,42.5,9.5,42.5,21.3"/>
			<g>
				<g>
					<defs>
						<rect id="SVGID_1_" x="6" y="10.4" width="29.2" height="24.2"/>
					</defs>
					<clipPath id="SVGID_2_">
						<use xlink:href="#SVGID_1_"  style="overflow:visible;"/>
					</clipPath>
					<g class="st1">
						<path class="st2" d="M23.1,23.3c-0.1,0-0.2,0-0.3,0c-0.5-0.2-0.7-0.7-0.6-1.1c0,0,0,0,0,0l2.2-6.6c0.1-0.5,0.6-0.7,1.1-0.6
							c0.5,0.1,0.7,0.6,0.6,1.1c0,0,0,0,0,0L24,22.7C23.9,23,23.5,23.3,23.1,23.3"/>
						<path class="st2" d="M28.1,26.6c-0.2,0-0.3,0-0.5-0.1l-5-3.2c-0.4-0.3-0.5-0.8-0.3-1.3s0.8-0.5,1.3-0.3l0,0l5,3.2
							c0.4,0.3,0.5,0.8,0.3,1.2C28.7,26.4,28.4,26.6,28.1,26.6"/>
						<path class="st2" d="M24.9,22.4c0,0.9-0.7,1.6-1.6,1.6s-1.6-0.7-1.6-1.6s0.7-1.6,1.6-1.6S24.9,21.5,24.9,22.4L24.9,22.4"/>
						<path class="st2" d="M23.1,33.6c-1.6,0-3.3-0.4-4.7-1.1c-0.7-0.3-1.3-0.7-1.9-1.2c-0.4-0.3-0.5-0.9-0.2-1.3
							c0.3-0.4,0.9-0.5,1.3-0.2l0,0c0.5,0.4,1,0.7,1.6,1c1.2,0.6,2.6,0.9,4,0.9c5.1,0,9.3-4.1,9.3-9.3c0-5.1-4.1-9.3-9.3-9.3
							s-9.3,4.1-9.3,9.3c0,0,0,0,0,0c0,0.5-0.4,0.9-0.9,0.9c-0.5,0-0.9-0.4-0.9-0.9c0-6.1,5-11.1,11.1-11.1c6.1,0,11.1,5,11.1,11.1
							C34.2,28.7,29.3,33.6,23.1,33.6"/>
						<path class="st2" d="M12.9,25l-5.6-5.7C7,19,7,18.4,7.4,18.1c0.3-0.3,0.8-0.3,1.2,0l4.4,4.4l4.4-4.4c0.4-0.3,0.9-0.3,1.3,0.1
							c0.3,0.3,0.3,0.8,0,1.2L12.9,25z"/>
					</g>
				</g>
			</g>
			<path class="st3" d="M22.1,22.1c-0.1,0-0.2,0-0.3,0c-0.5-0.2-0.7-0.7-0.6-1.1c0,0,0,0,0,0l2.2-6.6c0.1-0.5,0.6-0.7,1.1-0.6
				c0.5,0.1,0.7,0.6,0.6,1.1c0,0,0,0,0,0L23,21.4C22.9,21.8,22.5,22.1,22.1,22.1"/>
			<path class="st3" d="M27.1,25.3c-0.2,0-0.3,0-0.5-0.1l-5-3.2c-0.4-0.3-0.5-0.8-0.3-1.3s0.8-0.5,1.3-0.3l0,0l5,3.2
				c0.4,0.3,0.5,0.8,0.3,1.2C27.7,25.2,27.4,25.3,27.1,25.3"/>
			<path class="st3" d="M23.9,21.2c0,0.9-0.7,1.6-1.6,1.6s-1.6-0.7-1.6-1.6s0.7-1.6,1.6-1.6S23.9,20.3,23.9,21.2L23.9,21.2"/>
			<path class="st3" d="M22.1,32.4c-1.6,0-3.3-0.4-4.7-1.1c-0.7-0.3-1.3-0.7-1.9-1.2c-0.4-0.3-0.5-0.9-0.2-1.3s0.9-0.5,1.3-0.2
				c0.5,0.4,1,0.7,1.6,1c1.2,0.6,2.6,0.9,4,0.9c5.1,0,9.3-4.1,9.3-9.3c0-5.1-4.1-9.3-9.3-9.3s-9.3,4.1-9.3,9.3c0,0,0,0,0,0
				c0,0.5-0.4,0.9-0.9,0.9c-0.5,0-0.9-0.4-0.9-0.9l0,0c0-6.1,5-11.1,11.1-11.1s11.1,5,11.1,11.1C33.2,27.4,28.3,32.4,22.1,32.4"/>
			<path class="st3" d="M11.9,23.7l-5.6-5.6C6,17.7,6,17.2,6.4,16.8c0.3-0.3,0.8-0.3,1.2,0l4.4,4.4l4.4-4.4c0.3-0.4,0.9-0.4,1.3-0.1
				s0.4,0.9,0.1,1.3c0,0-0.1,0.1-0.1,0.1L11.9,23.7z"/>
		</g>
	</g>
</g>
</svg>
