<svg xmlns="http://www.w3.org/2000/svg" viewBox="0 0 42.52 42.52"><defs><style>.cls-1{fill:#a3b83a;}.cls-2{fill:#738027;}.cls-3{fill:#fff;}</style></defs><title>icon-benefits-9</title><g id="Layer_2" data-name="Layer 2"><g id="Layer_1-2" data-name="Layer 1"><path class="cls-1" d="M21.26,0A21.26,21.26,0,1,0,42.52,21.26,21.26,21.26,0,0,0,21.26,0"/><path class="cls-2" d="M24.31,32A70.5,70.5,0,0,1,12.21,13.32S26.58,15,24.33,32"/><path class="cls-2" d="M10.78,14c-3,14.45,8,17.68,11.73,18.36A71.33,71.33,0,0,1,10.78,14"/><path class="cls-2" d="M34.89,18c-2.19,2.88-7.15,9.69-8.71,14.32,8-1.66,8.68-11.44,8.71-14.32"/><path class="cls-2" d="M33.28,17.63C21.84,20.32,23.56,29.36,24.33,32c1.88-5,7-11.89,8.94-14.37"/><path class="cls-3" d="M22.84,29.8A70.5,70.5,0,0,1,10.75,11.08S25.11,12.8,22.87,29.77"/><path class="cls-3" d="M9.31,11.71c-3,14.45,8,17.68,11.73,18.36A71.33,71.33,0,0,1,9.31,11.71"/><path class="cls-3" d="M33.43,15.76c-2.19,2.88-7.15,9.69-8.71,14.32,8-1.66,8.68-11.44,8.71-14.32"/><path class="cls-3" d="M31.81,15.39c-11.44,2.69-9.72,11.73-8.94,14.37,1.88-5,7-11.89,8.94-14.37"/></g></g></svg>