<?xml version="1.0" encoding="utf-8"?>
<!-- Generator: Adobe Illustrator 21.1.0, SVG Export Plug-In . SVG Version: 6.00 Build 0)  -->
<svg version="1.1" id="Layer_1" xmlns="http://www.w3.org/2000/svg" xmlns:xlink="http://www.w3.org/1999/xlink" x="0px" y="0px"
	 viewBox="0 0 42.5 42.5" style="enable-background:new 0 0 42.5 42.5;" xml:space="preserve">
<style type="text/css">
	.st0{fill:#F9C02D;}
	.st1{clip-path:url(#SVGID_2_);}
	.st2{fill:#A67E3A;}
	.st3{fill:#FFFFFF;}
</style>
<title>icon-benefits-8</title>
<g>
	<g id="Layer_2">
		<g id="Layer_1-2">
			<path class="st0" d="M21.3,0C9.5,0,0,9.5,0,21.3s9.5,21.3,21.3,21.3S42.5,33,42.5,21.3l0,0C42.5,9.5,33,0,21.3,0"/>
			<g>
				<g>
					<defs>
						<rect id="SVGID_1_" x="13.7" y="10.5" width="16.7" height="23.4"/>
					</defs>
					<clipPath id="SVGID_2_">
						<use xlink:href="#SVGID_1_"  style="overflow:visible;"/>
					</clipPath>
					<g class="st1">
						<path class="st2" d="M23.2,11.5c-5.4,0-8.1,2-8.1,6c0,1.6,0.4,3.2,1.1,4.7c0.7,1.3,1,2.8,1.1,4.2c0,1.5-0.9,2.6-2.7,3.4v3.1
							c1.3-0.5,2.7-0.8,4.2-0.8c1.2,0,2.4,0.2,3.5,0.5c1,0.2,1.9,0.4,2.9,0.4c1.5,0,2.9-0.4,4.1-1.2v-3.4c-1.1,0.9-2.4,1.3-3.8,1.4
							c-0.5,0-1-0.1-1.5-0.2c-1-0.4-2-0.6-3.1-0.6c-0.2,0-0.5,0-0.7,0.1c0.6-0.4,0.9-1.3,0.9-2.6c0-1-0.2-2-0.6-3h4.6v-3h-5.6
							c-0.4-0.9-0.6-1.9-0.5-2.9c0-1.9,1.3-2.9,4-2.9c2.3-0.1,4.5,0.5,6.3,1.9v-3.5C27.5,11.9,25.4,11.4,23.2,11.5"/>
					</g>
				</g>
			</g>
			<path class="st3" d="M27.8,15.5c-1.8-1.3-4-2-6.3-1.9c-2.7,0-4,1-4,2.9c-0.1,1,0.1,2,0.5,2.9h5.6v3h-4.5c0.4,1,0.6,2,0.6,3
				c0,1.3-0.3,2.2-0.9,2.6c1.3-0.1,2.6,0.1,3.8,0.6c1.6,0.6,3.4,0.2,5.3-1.2v3.3c-1.8,1.3-4.1,1.5-7,0.8c-2.5-0.7-5.2-0.6-7.7,0.3
				v-3.1c1.8-0.7,2.7-1.8,2.7-3.4c-0.1-1.5-0.5-2.9-1.1-4.2c-0.7-1.5-1.1-3.1-1.1-4.7c0-4,2.7-6,8.1-6c2.1-0.1,4.3,0.4,6.2,1.4V15.5
				z"/>
		</g>
	</g>
</g>
</svg>
