<svg xmlns="http://www.w3.org/2000/svg" viewBox="0 0 42.52 42.52"><defs><style>.cls-1{fill:#f9c12d;}.cls-2{fill:#c99211;}.cls-3{fill:#fff;}</style></defs><title>icon-benefits-4</title><g id="Layer_2" data-name="Layer 2"><g id="Layer_1-2" data-name="Layer 1"><path class="cls-1" d="M42.52,21.26A21.26,21.26,0,1,1,21.26,0,21.26,21.26,0,0,1,42.52,21.26"/><path class="cls-2" d="M24.76,33.87a1.06,1.06,0,0,1-1.1,1H18a1,1,0,1,1,0-2h5.65a1.06,1.06,0,0,1,1.1,1"/><polygon class="cls-2" points="22.68 35.21 19 35.21 19 35.67 19.63 35.67 19.63 36.35 22.08 36.35 22.08 35.67 22.68 35.67 22.68 35.21"/><path class="cls-2" d="M20.17,14.92a4.61,4.61,0,0,0-3.62,4.43.55.55,0,0,1-.57.53h0a.55.55,0,0,1-.57-.52,5.74,5.74,0,0,1,4.48-5.46.58.58,0,0,1,.69.38.53.53,0,0,1-.41.64m.67-3.14C16.53,11.78,13,15,13,19a7,7,0,0,0,2.65,5.39A7,7,0,0,1,17,28v.75a.85.85,0,0,0,.89.82h6a.85.85,0,0,0,.89-.82v-.08a7.53,7.53,0,0,1,1.38-4.44h0A6.93,6.93,0,0,0,28.63,19c0-4-3.49-7.19-7.79-7.19"/><path class="cls-2" d="M24.76,31.23a1.07,1.07,0,0,1-1.1,1H18a1,1,0,1,1,0-2h5.65a1.06,1.06,0,0,1,1.1,1"/><path class="cls-3" d="M22.94,32.18a1.06,1.06,0,0,1-1.1,1H16.19a1,1,0,1,1,0-2h5.65a1.06,1.06,0,0,1,1.1,1"/><polygon class="cls-3" points="20.85 33.53 17.17 33.53 17.17 33.98 17.8 33.98 17.8 34.66 20.25 34.66 20.25 33.98 20.85 33.98 20.85 33.53"/><path class="cls-3" d="M18.34,13.24a4.61,4.61,0,0,0-3.62,4.43.55.55,0,0,1-.57.53h0a.55.55,0,0,1-.57-.52,5.74,5.74,0,0,1,4.48-5.46.58.58,0,0,1,.69.38.53.53,0,0,1-.41.64M19,10.1c-4.3,0-7.79,3.22-7.79,7.19a7,7,0,0,0,2.65,5.39,7,7,0,0,1,1.27,3.68v.75a.85.85,0,0,0,.89.82h6a.85.85,0,0,0,.89-.82V27a7.53,7.53,0,0,1,1.38-4.44h0a6.93,6.93,0,0,0,2.53-5.29c0-4-3.49-7.19-7.79-7.19"/><path class="cls-3" d="M22.94,29.55a1.07,1.07,0,0,1-1.1,1H16.19a1,1,0,1,1,0-2h5.65a1.06,1.06,0,0,1,1.1,1"/><path class="cls-3" d="M27.82,13.11l-.18,0a.52.52,0,0,1-.36-.66l1.38-3.88a.58.58,0,0,1,.72-.34.52.52,0,0,1,.36.66l-1.38,3.88a.57.57,0,0,1-.54.36"/><path class="cls-3" d="M31,15a.61.61,0,0,1-.31-.08l-3.17-1.87a.5.5,0,0,1-.17-.73.6.6,0,0,1,.79-.16l3.17,1.87a.5.5,0,0,1,.17.73A.58.58,0,0,1,31,15"/><path class="cls-3" d="M28.94,12.61a1,1,0,1,1-1-.95,1,1,0,0,1,1,.95"/><path class="cls-3" d="M27.82,19.13a7.5,7.5,0,0,1-2.42-.4.51.51,0,0,1-.34-.67.58.58,0,0,1,.73-.31,6,6,0,0,0,7.54-3.22,5.32,5.32,0,0,0-3.49-7,6,6,0,0,0-7.54,3.22,5,5,0,0,0-.36,2,.55.55,0,0,1-.55.54.55.55,0,0,1-.59-.51,6,6,0,0,1,.43-2.44,7.2,7.2,0,0,1,9-3.84,6.35,6.35,0,0,1,4.16,8.31,7,7,0,0,1-6.59,4.24"/></g></g></svg>