<?xml version="1.0" encoding="utf-8"?>
<!-- Generator: Adobe Illustrator 21.1.0, SVG Export Plug-In . SVG Version: 6.00 Build 0)  -->
<svg version="1.1" id="Layer_1" xmlns="http://www.w3.org/2000/svg" xmlns:xlink="http://www.w3.org/1999/xlink" x="0px" y="0px"
	 viewBox="0 0 42.5 42.5" style="enable-background:new 0 0 42.5 42.5;" xml:space="preserve">
<style type="text/css">
	.st0{fill:#9AC982;}
	.st1{clip-path:url(#SVGID_2_);}
	.st2{fill:#759F6A;}
	.st3{fill:#FFFFFF;}
</style>
<title>icon-benefits-2</title>
<g>
	<g id="Layer_2">
		<g id="Layer_1-2">
			<path class="st0" d="M42.5,21.3c0,11.7-9.5,21.3-21.3,21.3S0,33,0,21.3S9.5,0,21.3,0c0,0,0,0,0,0C33,0,42.5,9.5,42.5,21.3"/>
			<g>
				<g>
					<defs>
						<rect id="SVGID_1_" x="8.3" y="9.7" width="26.8" height="23.7"/>
					</defs>
					<clipPath id="SVGID_2_">
						<use xlink:href="#SVGID_1_"  style="overflow:visible;"/>
					</clipPath>
					<g class="st1">
						<path class="st2" d="M23.3,31.5v-2.2c0-1.8-0.3-3.5-0.9-5.2c0.9-1.4,2.5-2.3,4.2-2.4c3.5,0,6.3,4.4,6.5,9.8L23.3,31.5z
							 M28.2,20.9c2-0.9,2.9-3.3,2-5.3c-0.9-2-3.3-2.9-5.3-2c-2,0.9-2.9,3.3-2,5.3c0.4,0.9,1.1,1.6,2,2c-1.2,0.4-2.2,1.1-3,2.1
							c-1.1-2.5-3-4.2-5-4.5c2.2-0.4,3.6-2.4,3.3-4.6s-2.4-3.6-4.6-3.3S12,13,12.4,15.2c0.3,1.7,1.6,3,3.3,3.3
							C12,19,9.3,23.6,9.3,29.2v3.2h24.8v-0.5C34.1,26.5,31.6,22,28.2,20.9"/>
					</g>
				</g>
			</g>
			<path class="st3" d="M22.4,30.8v-2.2c0-1.8-0.3-3.5-0.9-5.2c0.9-1.4,2.5-2.3,4.2-2.4c3.5,0,6.3,4.4,6.5,9.8L22.4,30.8z
				 M27.4,20.3c2-0.9,2.9-3.3,2-5.3c-0.9-2-3.3-2.9-5.3-2c-2,0.9-2.9,3.3-2,5.3c0.4,0.9,1.1,1.6,2,2c-1.2,0.4-2.2,1.1-3,2.1
				c-1.1-2.5-3-4.2-5-4.5c2.2-0.4,3.6-2.4,3.3-4.6s-2.4-3.6-4.6-3.3s-3.6,2.4-3.3,4.6c0.3,1.7,1.6,3,3.3,3.3
				c-3.5,0.5-6.3,5.1-6.3,10.7v3.2h24.8v-0.5C33.2,25.9,30.7,21.4,27.4,20.3"/>
		</g>
	</g>
</g>
</svg>
