<svg xmlns="http://www.w3.org/2000/svg" xmlns:xlink="http://www.w3.org/1999/xlink" viewBox="0 0 41.52 41.52"><defs><style>.cls-1{fill:#427c30;}.cls-2{fill:#524d45;}.cls-3{fill:url(#linear-gradient);}.cls-4{fill:#fff;}</style><linearGradient id="linear-gradient" x1="13.9" y1="9.17" x2="13.9" y2="24.83" gradientUnits="userSpaceOnUse"><stop offset="0" stop-color="#fff"/><stop offset="1" stop-color="#336733"/></linearGradient></defs><title>icon-contents</title><g id="Layer_2" data-name="Layer 2"><g id="Layer_1-2" data-name="Layer 1"><path class="cls-1" d="M20.76,41.52A20.76,20.76,0,1,0,0,20.76,20.76,20.76,0,0,0,20.76,41.52"/><path class="cls-2" d="M14,12a7,7,0,1,0,3.85,1.24A7,7,0,0,0,14,12m-.3,15.65A8.65,8.65,0,1,1,21,23.92a8.61,8.61,0,0,1-7.28,3.73"/><rect class="cls-2" x="25.82" y="19.66" width="2.97" height="17.22" rx="0.47" ry="0.47" transform="translate(-11.48 34.64) rotate(-55.33)"/><path class="cls-3" d="M18.35,10.56a7.83,7.83,0,1,1-10.89,2,7.83,7.83,0,0,1,10.89-2"/><path class="cls-4" d="M13.89,10a7,7,0,1,0,3.85,1.24A7,7,0,0,0,13.89,10m-.3,15.65a8.65,8.65,0,1,1,7.28-3.73,8.61,8.61,0,0,1-7.28,3.73"/><rect class="cls-4" x="25.68" y="17.68" width="2.97" height="17.22" rx="0.47" ry="0.47" transform="translate(-9.91 33.67) rotate(-55.33)"/></g></g></svg>