<?xml version="1.0" encoding="utf-8"?>
<!-- Generator: Adobe Illustrator 21.1.0, SVG Export Plug-In . SVG Version: 6.00 Build 0)  -->
<svg version="1.1" id="Layer_1" xmlns="http://www.w3.org/2000/svg" xmlns:xlink="http://www.w3.org/1999/xlink" x="0px" y="0px"
	 viewBox="0 0 42.5 42.5" style="enable-background:new 0 0 42.5 42.5;" xml:space="preserve">
<style type="text/css">
	.st0{fill:#ABDBE7;}
	.st1{clip-path:url(#SVGID_2_);}
	.st2{fill:#8BB2B1;}
	.st3{fill:#FFFFFF;}
</style>
<title>icon-benefits-1</title>
<g>
	<g id="Layer_2">
		<g id="Layer_1-2">
			<path class="st0" d="M42.5,21.3c0,11.7-9.5,21.3-21.3,21.3S0,33,0,21.3S9.5,0,21.3,0c0,0,0,0,0,0C33,0,42.5,9.5,42.5,21.3"/>
			<g>
				<g>
					<defs>
						<rect id="SVGID_1_" x="7.8" y="14.8" width="28.5" height="13.4"/>
					</defs>
					<clipPath id="SVGID_2_">
						<use xlink:href="#SVGID_1_"  style="overflow:visible;"/>
					</clipPath>
					<g class="st1">
						<path class="st2" d="M35.3,23.9c0-1.7-1.3-3.2-3.1-3.2c0,0,0,0,0,0c-0.5,0-1,0.1-1.4,0.4c-0.1-1.5-1.5-2.7-3-2.6
							c-0.7,0-1.3,0.3-1.7,0.8c-1.2-2.9-4.5-4.3-7.3-3.1c-1.3,0.5-2.4,1.6-3,2.9h-0.3c-1.2,0-2.3,1-2.3,2.2c-1.6-0.7-3.4,0-4,1.6
							s0,3.4,1.6,4c0.4,0.2,0.8,0.2,1.2,0.2h20.5l0,0C34.1,27.1,35.4,25.7,35.3,23.9"/>
					</g>
				</g>
			</g>
			<path class="st3" d="M34.6,22.6c0-1.7-1.3-3.2-3.1-3.2c0,0,0,0,0,0c-0.5,0-1,0.1-1.4,0.4c-0.1-1.5-1.5-2.7-3-2.5
				c-0.6,0.1-1.2,0.3-1.7,0.8c-1.2-2.9-4.4-4.3-7.3-3.1c-1.3,0.5-2.4,1.6-3,2.9h-0.3c-1.2,0-2.3,1-2.3,2.2c-1.6-0.7-3.4,0-4,1.6
				c-0.7,1.6,0,3.4,1.6,4c0.4,0.2,0.8,0.2,1.2,0.2h20.5l0,0C33.4,25.7,34.7,24.3,34.6,22.6"/>
		</g>
	</g>
</g>
</svg>
