<svg xmlns="http://www.w3.org/2000/svg" viewBox="0 0 40.11 40.11"><defs><style>.cls-1{fill:#427c30;}</style></defs><title>main-contact</title><g id="Layer_2" data-name="Layer 2"><g id="Layer_1-2" data-name="Layer 1"><path class="cls-1" d="M28,27.45v3H12.11V23.52A5.48,5.48,0,0,1,14.82,19l3.66,5.91.72-2.09L18.38,22l1.67-1.67L21.73,22l-.82.82.72,2.09L25.29,19A5.48,5.48,0,0,1,28,23.52ZM14.46,11.08l0,0,.21-.47.19-.36.33-.52.31-.41L15.74,9l.54-.52.22-.17.63-.43.13-.08L18,7.49l.18-.07L19,7.19l.18,0,.91-.08.91.08.18,0,.82.22.18.07.71.34L23,7.9l.63.43.21.17.54.52.22.26.31.41.32.51.19.36.21.46v0a6.85,6.85,0,0,1,.46,2.49,6.28,6.28,0,0,1-6.05,6.49A6.28,6.28,0,0,1,14,13.57a6.92,6.92,0,0,1,.46-2.49M20.06,0A20.06,20.06,0,1,0,40.11,20.06,20.06,20.06,0,0,0,20.06,0"/></g></g></svg>
