<svg xmlns="http://www.w3.org/2000/svg" xmlns:xlink="http://www.w3.org/1999/xlink" viewBox="0 0 36.99 36.99"><defs><style>.cls-1{fill:none;}.cls-2{isolation:isolate;}.cls-3{fill:#f9c02d;}.cls-4{mix-blend-mode:multiply;}.cls-5{clip-path:url(#clip-path);}.cls-6{fill:#a8a5a0;}.cls-7{fill:#fff;}</style><clipPath id="clip-path"><rect class="cls-1" x="11.75" y="8.99" width="14.82" height="20.57"/></clipPath></defs><title>icon-roi</title><g class="cls-2"><g id="Layer_2" data-name="Layer 2"><g id="Layer_1-2" data-name="Layer 1"><path class="cls-3" d="M18.5,0A18.5,18.5,0,1,0,37,18.5,18.49,18.49,0,0,0,18.5,0"/><g class="cls-4"><g class="cls-5"><path class="cls-6" d="M20.19,10q-7,0-7,5.2a10.14,10.14,0,0,0,1,4.07,9.53,9.53,0,0,1,1,3.67q0,2-2.34,2.91v2.67a9.28,9.28,0,0,1,3.61-.7,12.7,12.7,0,0,1,3.09.41,10.49,10.49,0,0,0,2.54.34,6.11,6.11,0,0,0,3.58-1.05v-2.9a5.8,5.8,0,0,1-3.32,1.23A4,4,0,0,1,21,25.63a8.83,8.83,0,0,0-2.68-.54,3.24,3.24,0,0,0-.61.05q.81-.52.81-2.24A7.34,7.34,0,0,0,18,20.32h4V17.68H17.09a5,5,0,0,1-.44-2.51q0-2.54,3.45-2.53a8.37,8.37,0,0,1,5.47,1.64v-3A9.91,9.91,0,0,0,20.19,10"/></g></g><path class="cls-7" d="M24.19,13.49a8.37,8.37,0,0,0-5.47-1.64q-3.45,0-3.45,2.53a5,5,0,0,0,.44,2.51h4.87v2.65h-4a7.35,7.35,0,0,1,.49,2.57q0,1.73-.81,2.24a6.93,6.93,0,0,1,3.3.49,5,5,0,0,0,4.59-1v2.9q-2.37,1.65-6.12.71a10.43,10.43,0,0,0-6.7.29V25.06q2.35-.95,2.34-2.91a9.52,9.52,0,0,0-1-3.67,10.15,10.15,0,0,1-1-4.07q0-5.21,7-5.21a9.92,9.92,0,0,1,5.38,1.26Z"/></g></g></g></svg>