<svg xmlns="http://www.w3.org/2000/svg" xmlns:xlink="http://www.w3.org/1999/xlink" viewBox="0 0 595.28 639.01"><defs><style>.cls-1{fill:none;}.cls-2{fill:#c4a06d;}.cls-3{fill:#fff;}.cls-4{clip-path:url(#clip-path);}</style><clipPath id="clip-path"><rect class="cls-1" width="595.28" height="841.89"/></clipPath></defs><g id="Layer_2" data-name="Layer 2"><g id="Layer_1-2" data-name="Layer 1"><rect class="cls-2" x="406.3" width="160.63" height="207.22"/><polygon class="cls-3" points="438.92 184.33 434.36 181.56 434.36 184.33 433.83 184.33 433.83 180.58 438.39 183.35 438.39 180.58 438.92 180.58 438.92 184.33"/><g class="cls-4"><path class="cls-3" d="M467,182.33v-.55a.79.79,0,0,1,.86-.68h2.62a.79.79,0,0,1,.86.68v.55Zm3.48-1.75h-2.62a1.3,1.3,0,0,0-1.39,1.2v2.56H467v-1.49h4.34v1.49h.53v-2.56a1.3,1.3,0,0,0-1.39-1.2"/></g><rect class="cls-3" x="431.95" y="180.58" width="0.53" height="3.75"/><polygon class="cls-3" points="445.15 180.58 440.28 180.58 440.28 181.11 442.45 181.11 442.45 184.33 442.98 184.33 442.98 181.11 445.15 181.11 445.15 180.58"/><polygon class="cls-3" points="451.64 181.1 451.64 180.57 446.5 180.57 446.5 184.33 451.64 184.33 451.64 183.8 447.03 183.8 447.03 182.72 450.52 182.72 450.52 182.19 447.03 182.19 447.03 181.1 451.64 181.1"/><g class="cls-4"><path class="cls-3" d="M458.49,184.34h-4.18A1.34,1.34,0,0,1,453,183v-1.09a1.34,1.34,0,0,1,1.33-1.33h4.18v.53h-4.18a.8.8,0,0,0-.8.8V183a.8.8,0,0,0,.8.8H458v-1.1h-3.21v-.53h3.74Z"/><path class="cls-3" d="M465.43,184.34l-1.61-1.6H464a1.08,1.08,0,0,0,0-2.15h-4.17v.53H464a.55.55,0,0,1,.54.55.54.54,0,0,1-.54.54H460.1a.27.27,0,0,0-.27.26v1.87h.53v-1.6h2.72l1.6,1.6Z"/></g><polygon class="cls-3" points="478.06 180.59 473.19 180.59 473.19 181.12 475.36 181.12 475.36 184.34 475.89 184.34 475.89 181.12 478.06 181.12 478.06 180.59"/><polygon class="cls-3" points="484.54 181.12 484.54 180.59 479.41 180.59 479.41 184.33 484.54 184.33 484.54 183.8 479.94 183.8 479.94 182.72 483.42 182.72 483.42 182.19 479.94 182.19 479.94 181.12 484.54 181.12"/><g class="cls-4"><path class="cls-3" d="M486.42,183.8h3.65a.8.8,0,0,0,.8-.8v-1.08a.8.8,0,0,0-.8-.8h-3.65Zm3.65.53h-4.18v-3.74h4.18a1.34,1.34,0,0,1,1.33,1.33V183a1.34,1.34,0,0,1-1.33,1.33"/><path class="cls-3" d="M501,184.34h-4v-.51H501a.52.52,0,0,0,.55-.55.56.56,0,0,0-.58-.56H498a1.07,1.07,0,0,1,0-2.14h4v.51h-3.92a.55.55,0,0,0-.59.54.56.56,0,0,0,.59.56H501a1.08,1.08,0,0,1,1.05,1.09,1.06,1.06,0,0,1-1.05,1.06"/><path class="cls-3" d="M508.27,180.58v.94a.79.79,0,0,1-.86.67h-2.62a.78.78,0,0,1-.86-.67v-.94h-.53v.94a1.31,1.31,0,0,0,1.39,1.2h1v1.61h.53v-1.61h1.05a1.31,1.31,0,0,0,1.39-1.2v-.94Z"/></g><polygon class="cls-3" points="534.87 184.34 534.34 184.34 534.34 181.56 532.07 182.87 529.8 181.56 529.8 184.34 529.27 184.34 529.27 180.58 532.07 182.24 534.87 180.58 534.87 184.34"/><polygon class="cls-3" points="521.43 180.58 516.56 180.58 516.56 181.11 518.73 181.11 518.73 184.33 519.26 184.33 519.26 181.11 521.43 181.11 521.43 180.58"/><g class="cls-4"><path class="cls-3" d="M514.16,184.34h-4v-.51h3.95a.52.52,0,0,0,.55-.55.55.55,0,0,0-.58-.56h-2.9a1.07,1.07,0,0,1,0-2.14h4v.51h-3.92a.55.55,0,0,0-.59.54.56.56,0,0,0,.59.56h2.87a1.08,1.08,0,0,1,1.05,1.09,1.06,1.06,0,0,1-1.05,1.06"/></g><polygon class="cls-3" points="527.93 181.11 527.93 180.58 522.79 180.58 522.79 184.34 527.93 184.34 527.93 183.81 523.32 183.81 523.32 182.73 526.8 182.73 526.8 182.2 523.32 182.2 523.32 181.11 527.93 181.11"/><g class="cls-4"><path class="cls-3" d="M540.22,184.34h-4v-.51h4a.52.52,0,0,0,.54-.55.55.55,0,0,0-.58-.56h-2.9a1.07,1.07,0,0,1,0-2.14h4v.51h-3.92a.55.55,0,0,0-.59.54.56.56,0,0,0,.59.56h2.87a1.08,1.08,0,0,1,1,1.09,1.06,1.06,0,0,1-1,1.06"/></g><path class="cls-3" d="M468.15,95.21l18.47-10.66,18.46,10.66-18.47,10.66Zm19.43-31.69L504.4,92.59l-16.82-9.72Zm-1.93,19.36-16.82,9.7,16.82-29.06Zm1-24.89L464.88,95.55l21.73,12.56,21.74-12.55Z"/><path class="cls-3" d="M482.34,134.63,463.87,124V102.64l18.47,10.67Zm-19.44-9,16.82,9.71-33.58,0Zm-1-1.67-16.76,9.68,16.76-29.1Zm-21.07,13.28,43.4,0v-25.1L462.54,99.64Z"/><path class="cls-3" d="M509.36,102.64V124l-18.46,10.66V113.3ZM511.29,124V104.55l16.76,29.09Zm-1,1.67,16.76,9.68-33.58,0Zm.38-26L489,112.19v25.1l43.41,0Z"/><g class="cls-4"><path class="cls-3" d="M463,172.47H438.58a6.66,6.66,0,0,1-6.63-6.68V149.21h3.3v16.58a3.36,3.36,0,0,0,3.33,3.39H463Z"/><path class="cls-3" d="M500.19,172.47H475.75a6.66,6.66,0,0,1-6.62-6.68v-9.9a6.65,6.65,0,0,1,6.62-6.68h24.44v3.29H475.75a3.36,3.36,0,0,0-3.33,3.39v9.9a3.36,3.36,0,0,0,3.33,3.39h24.44Z"/><path class="cls-3" d="M541.27,172.53l-10-10h1.18a6.69,6.69,0,0,0,0-13.37h-26v3.29h26a3.4,3.4,0,0,1,0,6.79H508a1.65,1.65,0,0,0-1.65,1.65v11.65h3.29v-10h17l10,10Z"/></g><rect class="cls-2" y="631.92" width="595.28" height="7.09"/></g></g></svg>