<svg xmlns="http://www.w3.org/2000/svg" width="19.28" height="19.326" viewBox="0 0 19.28 19.326"><defs><style>.a{fill:#f1f1f1;}</style></defs><g transform="translate(-1.519 -1.4)"><path class="a" d="M16.089,20.726H15.83a15.265,15.265,0,0,1-3.857-1.094h-.02a19.386,19.386,0,0,1-5.448-3.877c-.4-.4-.8-.815-1.213-1.292A17.475,17.475,0,0,1,2.052,9.015a11.79,11.79,0,0,1-.4-1.312,5.251,5.251,0,0,1,.4-3.48,3.178,3.178,0,0,1,.477-.716L3.881,2.156A2.286,2.286,0,0,1,5.591,1.4h.06a2.515,2.515,0,0,1,1.71.756L9.627,4.422a2.332,2.332,0,0,1,0,3.5l-.915.915,4.633,4.633.954-.954a2.412,2.412,0,0,1,1.75-.756,2.6,2.6,0,0,1,1.71.756l.02.02,1.133,1.133c.577.577,1.133,1.113,1.153,1.113a2.578,2.578,0,0,1,.219,3.36A6.161,6.161,0,0,1,16.089,20.726Zm-.219-1.094h.239a5.133,5.133,0,0,0,3.261-2.088,1.475,1.475,0,0,0-.06-1.968h0s-.577-.537-1.153-1.133L17.043,13.33a1.606,1.606,0,0,0-.974-.477,1.364,1.364,0,0,0-.994.437l-.974.954a1.1,1.1,0,0,1-.775.318h0a1.134,1.134,0,0,1-.775-.318L7.937,9.592a1.092,1.092,0,0,1,0-1.531l.915-.915a1.279,1.279,0,0,0,0-1.968L6.6,2.931a1.435,1.435,0,0,0-.974-.437h-.02a1.146,1.146,0,0,0-.895.4l-.02.04L3.3,4.3a1.911,1.911,0,0,0-.278.418,4.194,4.194,0,0,0-.318,2.744,9.46,9.46,0,0,0,.358,1.173,16.8,16.8,0,0,0,3.062,5.11c.378.418.775.855,1.153,1.233a18.658,18.658,0,0,0,5.13,3.658A13.985,13.985,0,0,0,15.87,19.633Z" transform="translate(0 0)"/></g></svg>