<svg xmlns="http://www.w3.org/2000/svg" width="21.403" height="12.146" viewBox="0 0 21.403 12.146"><defs><style>.a{fill:#f1f1f1;}</style></defs><path class="a" d="M21.823,22.5H2.558A1.058,1.058,0,0,0,1.5,23.558V33.588a1.058,1.058,0,0,0,1.058,1.058H21.845A1.058,1.058,0,0,0,22.9,33.588V23.558A1.077,1.077,0,0,0,21.823,22.5Zm-9.633,5.775-8-4.563h16Zm-2.667-.11-6.811,4.7v-8.6Zm1.168.661.97.551a1.047,1.047,0,0,0,.529.132,1.174,1.174,0,0,0,.529-.132l.97-.551L20.3,33.411H4.057Zm4.144-.661,6.833-3.9v8.619Z" transform="translate(-1.5 -22.5)"/></svg>