<?xml version="1.0" encoding="utf-8"?>
<!-- Generator: Adobe Illustrator 25.3.1, SVG Export Plug-In . SVG Version: 6.00 Build 0)  -->
<svg version="1.1" id="Layer_1" xmlns="http://www.w3.org/2000/svg" xmlns:xlink="http://www.w3.org/1999/xlink" x="0px" y="0px"
	 viewBox="0 0 267.2 107.8" style="enable-background:new 0 0 267.2 107.8;" xml:space="preserve">
<style type="text/css">
	.st0{fill:#FFFFFF;}
	.st1{fill:url(#SVGID_1_);}
</style>
<path class="st0" d="M113,15c0-3.9,2.8-6.1,6.7-6.1c3.6,0,6.7,2.2,6.7,6.1s-3.1,6.1-6.7,6.1C115.8,21.1,113,18.9,113,15z M114,81.7
	V33.9c0-3.2,1.8-5.1,5-5.1h1.3c3.2,0,5,1.8,5,5.1v47.8c0,3.2-1.8,5.1-5,5.1H119C115.8,86.8,114,85,114,81.7z"/>
<path class="st0" d="M152.7,75.8v5.9c0,3.2-1.8,5.1-5.1,5.1h-1.2c-3.2,0-5.1-1.8-5.1-5.1V15.1c0-3.2,1.8-5.1,5.1-5.1h1.2
	c3.2,0,5.1,1.8,5.1,5.1v25c3.2-7.9,11.3-12.4,20.5-12.4c14.3,0,26.6,10.1,26.6,30.1s-12.4,30.3-26.5,30.3
	C164.1,88.1,155.9,83.6,152.7,75.8z M188.4,57.8c0-12.7-7.3-20.5-18.1-20.5c-10.6,0-17.9,7.7-17.9,20.5s7.3,20.5,18.1,20.5
	S188.4,70.6,188.4,57.8z"/>
<path class="st0" d="M262.1,28.9c3.2,0,5.1,1.8,5.1,5.1v42.8c0,21.7-10.2,31-29.4,31c-11.1,0-20-4-24.9-11.1
	c-2.1-2.9-0.7-5.6,2.6-6.4l1.1-0.3c2.8-0.7,4.7,0.3,6.6,2.6c3.3,3.8,8.5,6.2,14.7,6.2c11.4,0,17.9-5.7,17.9-20.2v-5.1
	c-3.2,7.6-11.4,12-20.5,12c-14.5,0-26.6-9.6-26.6-28.9s12.1-28.8,26.5-28.8c9.1,0,17.3,4.4,20.6,12v-6c0-3.2,1.8-5.1,5.1-5.1
	L262.1,28.9z M256,56.6c0-12.5-7.2-20-18-20s-17.9,7.6-17.9,20c0,12.7,7.2,20.1,18,20.1S256,69.2,256,56.6z"/>
<linearGradient id="SVGID_1_" gradientUnits="userSpaceOnUse" x1="-9.623864e-07" y1="62.35" x2="95.2" y2="62.35" gradientTransform="matrix(1 0 0 -1 0 110)">
	<stop  offset="0" style="stop-color:#BEDE18"/>
	<stop  offset="0.307" style="stop-color:#6FC164"/>
	<stop  offset="0.5681" style="stop-color:#33AA9D"/>
	<stop  offset="0.7593" style="stop-color:#0E9CC1"/>
	<stop  offset="0.8602" style="stop-color:#0097CE"/>
	<stop  offset="1" style="stop-color:#0097CE"/>
</linearGradient>
<path class="st1" d="M15.9,54.2c3.6-3.6,3.6-9.5,0-13.1s-9.5-3.6-13.1,0s-3.6,9.5,0,13.1l0,0C6.4,57.8,12.2,57.8,15.9,54.2
	L15.9,54.2z M56.9,9.3c0,5.1-4.2,9.3-9.3,9.3s-9.3-4.2-9.3-9.3S42.5,0,47.6,0S56.9,4.2,56.9,9.3z M56.9,86c0,5.1-4.2,9.3-9.3,9.3
	s-9.3-4.2-9.3-9.3s4.2-9.3,9.3-9.3S56.9,80.8,56.9,86z M95.3,47.6c0,5.1-4.2,9.3-9.3,9.3c-3.2,0-6-1.6-7.6-4
	c-1.9-2.7-5.1-4.2-8.3-4.2h-6.4c-3.3,0-6.5,1.5-8.3,4.2c-1.7,2.4-4.5,4-7.6,4c-5.1,0-9.3-4.2-9.3-9.3l0,0c0-5.1,4.2-9.3,9.3-9.3
	c3.2,0,6,1.6,7.6,4c1.9,2.7,5.1,4.2,8.3,4.2h6.4c3.3,0,6.5-1.5,8.3-4.2c1.7-2.4,4.5-4,7.6-4C91.1,38.3,95.2,42.5,95.3,47.6
	L95.3,47.6z M76.1,28.5c0,5.1-4.2,9.3-9.3,9.3c-3.2,0-6-1.6-7.6-4c-1.9-2.7-5.1-4.2-8.3-4.2h-6.4c-3.3,0-6.5,1.5-8.3,4.2
	c-1.7,2.4-4.5,4-7.6,4c-5.1,0-9.3-4.2-9.3-9.3l0,0c0-5.1,4.2-9.3,9.3-9.3c3.2,0,6,1.6,7.6,4c1.9,2.7,5.1,4.2,8.3,4.2h6.4
	c3.3,0,6.5-1.5,8.3-4.2c1.7-2.4,4.5-4,7.6-4C71.9,19.2,76,23.3,76.1,28.5L76.1,28.5z M76.1,66.8c0,5.1-4.2,9.3-9.3,9.3
	c-3.2,0-6-1.6-7.6-4c-1.9-2.7-5.1-4.2-8.3-4.2h-6.4c-3.3,0-6.5,1.5-8.3,4.2c-1.7,2.4-4.5,4-7.6,4c-5.1,0-9.3-4.2-9.3-9.3l0,0
	c0-5.1,4.2-9.3,9.3-9.3c3.2,0,6,1.6,7.6,4c1.9,2.7,5.1,4.2,8.3,4.2h6.4c3.3,0,6.5-1.5,8.3-4.2c1.7-2.4,4.5-4,7.6-4
	C71.9,57.5,76,61.7,76.1,66.8L76.1,66.8z"/>
</svg>
