<svg xmlns="http://www.w3.org/2000/svg" viewBox="0 0 52.69 35.17"><defs><style>.cls-1{fill:#465262;}</style></defs><title>ac-ceiling</title><g id="Layer_2" data-name="Layer 2"><g id="Editable_Content" data-name="Editable Content"><path class="cls-1" d="M52.69,21.5A4.06,4.06,0,0,0,50,17.86l-3.33-1.2V7.6L28.52,0l-6,.44L19.44,2.75l-3.17-.59L4.78,9.75v8.74L1.94,20.23a4.07,4.07,0,0,0,1,7.36L27.31,35a4.26,4.26,0,0,0,1.18.17,4.15,4.15,0,0,0,1.73-.38l20.13-9.42A4.08,4.08,0,0,0,52.69,21.5Zm-8.22-5.64L28.93,10.25V2.57l15.54,6.5ZM17.31,4.6l2,.37V9.56l-2,1.23Zm3.2.1,1.81-1.35V8.24a4.15,4.15,0,0,0-1.81.58Zm3-2.12,4.21-.31V9.82L24,8.47a3.94,3.94,0,0,0-.49-.14ZM7,10.93l9.12-6v6.62L7,17.13ZM49.41,23.38,29.28,32.79a1.82,1.82,0,0,1-.79.18,2,2,0,0,1-.54-.08L3.53,25.48a1.87,1.87,0,0,1-.44-3.37l18.57-11.4a1.85,1.85,0,0,1,1-.28,1.72,1.72,0,0,1,.63.12l26,9.39A1.86,1.86,0,0,1,49.41,23.38Z"/><path class="cls-1" d="M45.61,21.94l-11.67-4-6.8-2.35-2.39-.83-1.23-.43h0a.92.92,0,0,0-.28-.05.87.87,0,0,0-.41.11L6.29,23.92a.86.86,0,0,0-.3.3.82.82,0,0,0-.1.4.86.86,0,0,0,.14.46.84.84,0,0,0,.43.31L28.18,32h0a.66.66,0,0,0,.23,0,.81.81,0,0,0,.37-.09l16.93-8.56a.8.8,0,0,0,.44-.72.78.78,0,0,0-.14-.46A.89.89,0,0,0,45.61,21.94ZM28.38,30.85,7.68,24.51l15.59-9,1.08.38c4,1.4,15.95,5.5,20,6.88Z"/><path class="cls-1" d="M28.13,14.92l16.84,6a.6.6,0,1,0,.41-1.13l-16.84-6a.61.61,0,0,0-.41,1.14Z"/><path class="cls-1" d="M6.6,22.88l12-7.62a.6.6,0,0,0,.19-.83.61.61,0,0,0-.83-.19L6,21.86a.61.61,0,0,0-.19.83A.6.6,0,0,0,6.6,22.88Z"/></g></g></svg>
