<svg xmlns="http://www.w3.org/2000/svg" viewBox="0 0 54.73 39.19"><defs><style>.cls-1{fill:#465262;}</style></defs><title>ac-ducted</title><g id="Layer_2" data-name="Layer 2"><g id="Editable_Content" data-name="Editable Content"><path class="cls-1" d="M54.17,33.34a1.93,1.93,0,0,0-1.36-.56h-.69v-8.5c0-.09,0-.29,0-.58a18.65,18.65,0,0,0-.35-3.54,17.53,17.53,0,0,0-1.18-3.76,13.82,13.82,0,0,0-1.76-2.89A12.31,12.31,0,0,0,44.29,10,17.34,17.34,0,0,0,37,8.52H35V1.1a1.1,1.1,0,0,0-2.2,0V8.52H7.42V1.2a1.11,1.11,0,0,0-2.21,0V8.52H1.1a1.11,1.11,0,0,0,0,2.21H5.61V23.16H1.1a1.1,1.1,0,1,0,0,2.2h35v7.42H35.6a1.93,1.93,0,0,0-1.36.56,2,2,0,0,0-.56,1.36v2.57a1.91,1.91,0,0,0,1.92,1.92H52.81a1.91,1.91,0,0,0,1.92-1.92V34.7A2,2,0,0,0,54.17,33.34ZM35.89,35h.48a1.76,1.76,0,0,0,.46-.06.58.58,0,0,0,.26.06H52.52v2H35.89Zm.2-24.25V23.16H23.46V10.73ZM44,12.29,39,20.76l2.62-9.45A11.73,11.73,0,0,1,44,12.29Zm4.09,4.06c.09.15.17.31.25.46l-8,4.85L47.21,15A10.66,10.66,0,0,1,48.11,16.35Zm1.37,3.57L39.69,23l9-5.5A14.34,14.34,0,0,1,49.48,19.92ZM38.29,33.06v-7.8H49.92v7.8a1.92,1.92,0,0,0,.14.72H38.15A1.92,1.92,0,0,0,38.29,33.06Zm11.63-10H42.29l7.36-2.34A17.69,17.69,0,0,1,49.92,23.05ZM38.29,20.2V10.77a16.88,16.88,0,0,1,2.52.34Zm8.4-5.83-7.18,7.05,5.2-8.72a9.81,9.81,0,0,1,1.27,1C46.23,13.89,46.47,14.13,46.69,14.37ZM6.82,10.73H22.25V23.16H6.82Z"/></g></g></svg>
