<svg xmlns="http://www.w3.org/2000/svg" viewBox="0 0 44.51 34.76"><defs><style>.cls-1{fill:#465262;}</style></defs><title>ac-outdoor</title><g id="Layer_2" data-name="Layer 2"><g id="Editable_Content" data-name="Editable Content"><path class="cls-1" d="M44,.51A1.75,1.75,0,0,0,42.77,0h-41A1.74,1.74,0,0,0,0,1.73V30.29A1.74,1.74,0,0,0,1.73,32H5v1.84a.89.89,0,0,0,.89.89h4.44a.89.89,0,0,0,.89-.89V32H33.48v1.84a.89.89,0,0,0,.89.89H38.8a.88.88,0,0,0,.63-.26.9.9,0,0,0,.26-.63V32h3.08a1.74,1.74,0,0,0,1.74-1.74V1.73A1.74,1.74,0,0,0,44,.51ZM2.21,29.82V2.21H42.3V29.82ZM10,33.56H6.21V32H10Zm28.47,0H34.68V32h3.81Z"/><path class="cls-1" d="M40.84,16.38a.91.91,0,0,0-.63-.27H32.57a.89.89,0,0,0-.63.27.87.87,0,0,0-.26.63V27.65a.89.89,0,0,0,.89.89h7.64a.9.9,0,0,0,.63-.26.88.88,0,0,0,.26-.63V17A.87.87,0,0,0,40.84,16.38Zm-8,.94h7v10h-7Z"/><path class="cls-1" d="M32.28,10H40.4a.6.6,0,1,0,0-1.2H32.28a.6.6,0,0,0,0,1.2Z"/><path class="cls-1" d="M32.28,7.59H40.4a.6.6,0,1,0,0-1.2H32.28a.6.6,0,0,0,0,1.2Z"/><path class="cls-1" d="M32.28,5.19H40.4a.6.6,0,0,0,.6-.6.6.6,0,0,0-.6-.6H32.28a.59.59,0,0,0-.6.6A.6.6,0,0,0,32.28,5.19Z"/><path class="cls-1" d="M16.44,3.48a12.63,12.63,0,1,0,8.93,3.7A12.6,12.6,0,0,0,16.44,3.48Zm8.08,20.71a11.42,11.42,0,1,1,3.35-8.08A11.38,11.38,0,0,1,24.52,24.19Z"/><path class="cls-1" d="M23.17,12.53a5.16,5.16,0,0,0-1.67.33c-.51.17-1,.36-1.39.46l-1.95.51-.07,0a2.29,2.29,0,0,0-.5-.3,1.42,1.42,0,0,1,0-.2,2.46,2.46,0,0,1,.51-.83,13.73,13.73,0,0,1,1.39-1.25,10.07,10.07,0,0,0,.75-.72,4.41,4.41,0,0,0,.62-.89A1.5,1.5,0,0,0,21.05,9,1.53,1.53,0,0,0,21,8.54,1.9,1.9,0,0,0,20.63,8a3,3,0,0,0-.45-.42,4.15,4.15,0,0,0-1.71-.69,9.19,9.19,0,0,0-1.69-.13,10.12,10.12,0,0,0-1.06.06,4.08,4.08,0,0,0-1.7.51,2.28,2.28,0,0,0-.71.64,2.23,2.23,0,0,0-.4,1,3.12,3.12,0,0,0,0,.52,5.22,5.22,0,0,0,.33,1.67c.17.51.36,1,.46,1.38l.51,2a.14.14,0,0,0,0,.06,3.3,3.3,0,0,0-.31.51l-.18,0a2.29,2.29,0,0,1-.84-.51A13.53,13.53,0,0,1,11.62,13a8.5,8.5,0,0,0-.72-.75,3.79,3.79,0,0,0-.9-.62,1.31,1.31,0,0,0-.63-.16,1.64,1.64,0,0,0-.5.09,2.23,2.23,0,0,0-1,.79,4,4,0,0,0-.69,1.71,9.13,9.13,0,0,0-.13,1.69,10.1,10.1,0,0,0,0,1.06,4.35,4.35,0,0,0,.52,1.7,2.25,2.25,0,0,0,.64.71,2.18,2.18,0,0,0,1,.4,3.12,3.12,0,0,0,.52,0,5.27,5.27,0,0,0,1.67-.33c.5-.17,1-.36,1.38-.47l2-.5.06,0a3.25,3.25,0,0,0,.51.3,1.16,1.16,0,0,1,0,.18,2.4,2.4,0,0,1-.51.84A14.7,14.7,0,0,1,13.38,21a8.54,8.54,0,0,0-.76.72,4.15,4.15,0,0,0-.62.89,1.5,1.5,0,0,0-.15.64,1.33,1.33,0,0,0,.09.49,1.91,1.91,0,0,0,.33.58,2.64,2.64,0,0,0,.46.43,4.16,4.16,0,0,0,1.7.69,10.1,10.1,0,0,0,1.69.12,10.28,10.28,0,0,0,1.07-.05,4.5,4.5,0,0,0,1.7-.51,2.52,2.52,0,0,0,.71-.64,2.33,2.33,0,0,0,.39-1,2.92,2.92,0,0,0,0-.51,5.22,5.22,0,0,0-.32-1.67c-.18-.51-.36-1-.47-1.39-.17-.65-.34-1.3-.5-1.95l0-.07a2.72,2.72,0,0,0,.29-.5l.2.05a2.4,2.4,0,0,1,.84.5,13.73,13.73,0,0,1,1.25,1.39,7.23,7.23,0,0,0,.72.75,3.54,3.54,0,0,0,.89.62,1.46,1.46,0,0,0,.64.15,1.57,1.57,0,0,0,.49-.08,1.85,1.85,0,0,0,.58-.34,2.59,2.59,0,0,0,.43-.45,4,4,0,0,0,.68-1.71,9.19,9.19,0,0,0,.13-1.69,10.1,10.1,0,0,0-.05-1.06,4.39,4.39,0,0,0-.51-1.7,2.28,2.28,0,0,0-.64-.71,2.22,2.22,0,0,0-1-.4A3,3,0,0,0,23.17,12.53ZM14.07,9.4a1.73,1.73,0,0,1,0-.32.94.94,0,0,1,.28-.57,1.29,1.29,0,0,1,.41-.28A3.23,3.23,0,0,1,15.73,8a7.57,7.57,0,0,1,1.05-.06,8.93,8.93,0,0,1,1.47.1,2.82,2.82,0,0,1,1.21.48,1.22,1.22,0,0,1,.3.3.56.56,0,0,1,.07.13.44.44,0,0,1,0,.1.22.22,0,0,1,0,.1,3.48,3.48,0,0,1-.75.94c-.5.47-1.14.93-1.7,1.51a4.39,4.39,0,0,0-.72,1,2.9,2.9,0,0,0-.24.72,2.91,2.91,0,0,0-1.21.29c-.12-.48-.25-1-.37-1.45s-.34-1-.49-1.46A4.14,4.14,0,0,1,14.07,9.4Zm-1.58,8.34c-.52.13-1,.33-1.47.49a4.08,4.08,0,0,1-1.28.27,3.16,3.16,0,0,1-.32,0,1,1,0,0,1-.57-.28,1.49,1.49,0,0,1-.29-.42,3.48,3.48,0,0,1-.25-.94,9.33,9.33,0,0,1-.06-1,8.06,8.06,0,0,1,.11-1.48,3.07,3.07,0,0,1,.47-1.21,1.16,1.16,0,0,1,.3-.29.37.37,0,0,1,.14-.07.2.2,0,0,1,.1,0l.1,0a3.34,3.34,0,0,1,.94.76c.47.49.93,1.14,1.51,1.69a3.93,3.93,0,0,0,1,.72,2.83,2.83,0,0,0,.71.24,2.71,2.71,0,0,0,.3,1.21Zm2.35-1.63a1.6,1.6,0,0,1,3.2,0,1.58,1.58,0,0,1-.47,1.13,1.59,1.59,0,0,1-2.26,0A1.58,1.58,0,0,1,14.84,16.11Zm4,6.72c0,.11,0,.21,0,.32a1.06,1.06,0,0,1-.28.57,1.47,1.47,0,0,1-.42.28,3.48,3.48,0,0,1-.94.25,7.57,7.57,0,0,1-1.05.06,8,8,0,0,1-1.47-.11,2.79,2.79,0,0,1-1.21-.47,1.42,1.42,0,0,1-.3-.3c0-.05-.05-.1-.07-.14a.29.29,0,0,1,0-.09,1,1,0,0,1,0-.11,3.48,3.48,0,0,1,.75-.94c.5-.47,1.14-.92,1.7-1.51a4.33,4.33,0,0,0,.72-1,3,3,0,0,0,.24-.73,2.77,2.77,0,0,0,1.21-.3c.12.49.25,1,.38,1.47s.33,1,.49,1.46A4.41,4.41,0,0,1,18.83,22.83Zm5.51-8.37a3.48,3.48,0,0,1,.25.94,9.33,9.33,0,0,1,.06,1,8.13,8.13,0,0,1-.11,1.48,3.07,3.07,0,0,1-.47,1.21,1.16,1.16,0,0,1-.3.29.37.37,0,0,1-.14.07.18.18,0,0,1-.09,0,.17.17,0,0,1-.11,0,3.29,3.29,0,0,1-.94-.75C22,18.23,21.56,17.59,21,17a3.7,3.7,0,0,0-1-.72,2.86,2.86,0,0,0-.73-.25,2.83,2.83,0,0,0-.29-1.2l1.46-.38c.52-.14,1-.34,1.47-.49a4.08,4.08,0,0,1,1.29-.27,1.63,1.63,0,0,1,.31,0,1,1,0,0,1,.57.28A1.24,1.24,0,0,1,24.34,14.46Z"/></g></g></svg>
