<svg xmlns="http://www.w3.org/2000/svg" viewBox="0 0 56.33 25.03"><defs><style>.cls-1{fill:#465262;}</style></defs><title>ac-wall-mounted</title><g id="Layer_2" data-name="Layer 2"><g id="Editable_Content" data-name="Editable Content"><path class="cls-1" d="M51.75,0H4.58A4.59,4.59,0,0,0,0,4.58V20.44A4.59,4.59,0,0,0,4.58,25H51.75a4.59,4.59,0,0,0,4.58-4.59V4.58A4.59,4.59,0,0,0,51.75,0ZM4.58,2H51.75A2.55,2.55,0,0,1,54.3,4.58V7.26H2V4.58A2.54,2.54,0,0,1,4.58,2ZM6.9,19.66H49.43V23H6.9ZM51.75,23h-.63V18.87a.91.91,0,0,0,0-.23,1,1,0,0,0-1-1H6.2a1,1,0,0,0-1,1,1.81,1.81,0,0,0,0,.23V23H4.58A2.55,2.55,0,0,1,2,20.44V9H54.3V20.44A2.55,2.55,0,0,1,51.75,23Z"/><path class="cls-1" d="M46.81,20.64H8.92a.6.6,0,0,0,0,1.2H46.81a.6.6,0,0,0,0-1.2Z"/></g></g></svg>
