<?xml version="1.0" encoding="utf-8"?>
<!-- Generator: Adobe Illustrator 22.1.0, SVG Export Plug-In . SVG Version: 6.00 Build 0)  -->
<svg version="1.1" id="Layer_1" xmlns="http://www.w3.org/2000/svg" xmlns:xlink="http://www.w3.org/1999/xlink" x="0px" y="0px"
	 viewBox="0 0 120.6 90.5" style="enable-background:new 0 0 120.6 90.5;" xml:space="preserve">
<style type="text/css">
	.st0{fill:#FAFAFA;}
	.st1{fill:#F2F2F2;}
</style>
<title>building-placeholder</title>
<g id="Layer_2_1_">
	<g id="Editable_Content">
		<rect class="st0" width="120.6" height="90.5"/>
		<path class="st1" d="M50.4,72.3H34.2c-0.6,0-1-0.4-1-1V28.1c0-0.6,0.4-1,1-1h16.2c0.6,0,1,0.4,1,1v43.3
			C51.4,71.9,50.9,72.4,50.4,72.3z M35.2,70.3h14.3V29.1H35.2V70.3z"/>
		<path class="st1" d="M70.3,72.3H50.4c-0.6,0-1-0.4-1-1V19.1c0-0.6,0.4-1,1-1h19.9c0.6,0,1,0.4,1,1v52.3
			C71.2,71.9,70.8,72.4,70.3,72.3z M51.4,70.3h17.8V20.1H51.4L51.4,70.3z"/>
		<path class="st1" d="M86.5,72.3H70.3c-0.6,0-1-0.4-1-1V33.5c0-0.6,0.4-1,1-1h16.2c0.6,0,1,0.4,1,1v37.9
			C87.4,71.9,87,72.4,86.5,72.3z M71.2,70.3h14.3V34.5H71.2L71.2,70.3z"/>
		<path class="st1" d="M63,72.3h-5.4c-0.6,0-1-0.4-1-1v-7.2c0-0.6,0.4-1,1-1H63c0.6,0,1,0.4,1,1v7.2C64,71.9,63.6,72.4,63,72.3z
			 M58.6,70.3H62v-5.2h-3.4V70.3z"/>
		<path class="st1" d="M81,61.5h-5.2c-0.6,0-1-0.4-1-1s0.4-1,1-1H81c0.6,0,1,0.4,1,1S81.6,61.5,81,61.5z"/>
		<path class="st1" d="M81,56.1h-5.2c-0.6,0-1-0.4-1-1s0.4-1,1-1H81c0.6,0,1,0.4,1,1S81.6,56.1,81,56.1z"/>
		<path class="st1" d="M81,50.7h-5.2c-0.6,0-1-0.4-1-1s0.4-1,1-1H81c0.6,0,1,0.4,1,1S81.6,50.7,81,50.7z"/>
		<path class="st1" d="M81,45.3h-5.2c-0.6,0-1-0.4-1-1s0.4-1,1-1H81c0.6,0,1,0.4,1,1S81.6,45.3,81,45.3z"/>
		<path class="st1" d="M81,39.9h-5.2c-0.6,0-1-0.4-1-1s0.4-1,1-1H81c0.6,0,1,0.4,1,1S81.6,39.9,81,39.9z"/>
		<path class="st1" d="M45,61.5h-5.2c-0.6,0-1-0.4-1-1s0.4-1,1-1H45c0.6,0,1,0.4,1,1S45.5,61.5,45,61.5z"/>
		<path class="st1" d="M45,56.1h-5.2c-0.6,0-1-0.4-1-1s0.4-1,1-1H45c0.6,0,1,0.4,1,1S45.5,56.1,45,56.1z"/>
		<path class="st1" d="M45,50.7h-5.2c-0.6,0-1-0.4-1-1s0.4-1,1-1H45c0.6,0,1,0.4,1,1S45.5,50.7,45,50.7z"/>
		<path class="st1" d="M45,45.3h-5.2c-0.6,0-1-0.4-1-1s0.4-1,1-1H45c0.6,0,1,0.4,1,1S45.5,45.3,45,45.3z"/>
		<path class="st1" d="M45,39.9h-5.2c-0.6,0-1-0.4-1-1s0.4-1,1-1H45c0.6,0,1,0.4,1,1S45.5,39.9,45,39.9z"/>
		<path class="st1" d="M45,34.5h-5.2c-0.6,0-1-0.4-1-1s0.4-1,1-1H45c0.6,0,1,0.4,1,1S45.5,34.5,45,34.5z"/>
		<path class="st1" d="M57.6,57.9H56c-0.6,0-1-0.4-1-1s0.4-1,1-1h1.6c0.6,0,1,0.4,1,1S58.2,57.9,57.6,57.9z"/>
		<path class="st1" d="M57.6,52.5H56c-0.6,0-1-0.4-1-1s0.4-1,1-1h1.6c0.6,0,1,0.4,1,1S58.2,52.5,57.6,52.5z"/>
		<path class="st1" d="M57.6,47.1H56c-0.6,0-1-0.4-1-1s0.4-1,1-1h1.6c0.6,0,1,0.4,1,1S58.2,47.1,57.6,47.1z"/>
		<path class="st1" d="M57.6,41.7H56c-0.6,0-1-0.4-1-1s0.4-1,1-1h1.6c0.6,0,1,0.4,1,1S58.2,41.7,57.6,41.7z"/>
		<path class="st1" d="M57.6,36.3H56c-0.6,0-1-0.4-1-1s0.4-1,1-1h1.6c0.6,0,1,0.4,1,1S58.2,36.3,57.6,36.3z"/>
		<path class="st1" d="M57.6,30.9H56c-0.6,0-1-0.4-1-1s0.4-1,1-1h1.6c0.6,0,1,0.4,1,1S58.2,30.9,57.6,30.9z"/>
		<path class="st1" d="M57.6,25.5H56c-0.6,0-1-0.4-1-1s0.4-1,1-1h1.6c0.6,0,1,0.4,1,1S58.2,25.5,57.6,25.5z"/>
		<path class="st1" d="M64.8,57.9h-1.6c-0.6,0-1-0.4-1-1s0.4-1,1-1h1.6c0.6,0,1,0.4,1,1S65.4,57.9,64.8,57.9z"/>
		<path class="st1" d="M64.8,52.5h-1.6c-0.6,0-1-0.4-1-1s0.4-1,1-1h1.6c0.6,0,1,0.4,1,1S65.4,52.5,64.8,52.5z"/>
		<path class="st1" d="M64.8,47.1h-1.6c-0.6,0-1-0.4-1-1s0.4-1,1-1h1.6c0.6,0,1,0.4,1,1S65.4,47.1,64.8,47.1z"/>
		<path class="st1" d="M64.8,41.7h-1.6c-0.6,0-1-0.4-1-1s0.4-1,1-1h1.6c0.6,0,1,0.4,1,1S65.4,41.7,64.8,41.7z"/>
		<path class="st1" d="M64.8,36.3h-1.6c-0.6,0-1-0.4-1-1s0.4-1,1-1h1.6c0.6,0,1,0.4,1,1S65.4,36.3,64.8,36.3z"/>
		<path class="st1" d="M64.8,30.9h-1.6c-0.6,0-1-0.4-1-1s0.4-1,1-1h1.6c0.6,0,1,0.4,1,1S65.4,30.9,64.8,30.9z"/>
		<path class="st1" d="M64.8,25.5h-1.6c-0.6,0-1-0.4-1-1s0.4-1,1-1h1.6c0.6,0,1,0.4,1,1S65.4,25.5,64.8,25.5z"/>
	</g>
</g>
</svg>
