<?xml version="1.0" encoding="utf-8"?>
<!-- Generator: Adobe Illustrator 26.2.1, SVG Export Plug-In . SVG Version: 6.00 Build 0)  -->
<svg version="1.1" id="Layer_1" xmlns="http://www.w3.org/2000/svg" xmlns:xlink="http://www.w3.org/1999/xlink" x="0px" y="0px"
	 viewBox="0 0 288 111.5" style="enable-background:new 0 0 288 111.5;" xml:space="preserve">
<style type="text/css">
	.st0{enable-background:new    ;}
	.st1{fill:#333E48;}
	.st2{fill:#313F4C;}
	.st3{fill:url(#SVGID_1_);}
</style>
<g>
	<g class="st0">
		<path class="st1" d="M138.1,80.9c1.1,0,1.6,0.6,1.6,1.7v14c0,7.1-3.3,10.1-9.6,10.1c-3.6,0-6.5-1.3-8.1-3.6
			c-0.7-1-0.2-1.8,0.9-2.1l0.4-0.1c0.9-0.2,1.5,0.1,2.1,0.9c1.1,1.3,2.8,2,4.8,2c3.7,0,5.8-1.8,5.8-6.6v-1.6
			c-1.1,2.5-3.7,3.9-6.7,3.9c-4.7,0-8.7-3.1-8.7-9.4c0-6.2,4-9.4,8.6-9.4c3,0,5.6,1.4,6.7,3.9v-1.9c0-1.1,0.6-1.7,1.7-1.7H138.1
			L138.1,80.9z M136.1,89.9c0-4.1-2.3-6.5-5.9-6.5c-3.5,0-5.8,2.5-5.8,6.5c0,4.1,2.3,6.6,5.9,6.6C133.7,96.5,136.1,94,136.1,89.9z"
			/>
		<path class="st1" d="M152.8,80.7c1.1,0,1.7,0.7,1.6,1.8l0,0.3c-0.1,1.1-0.7,1.5-1.8,1.5c-3.1,0.1-4.6,2.3-4.6,6.3v7.7
			c0,1.1-0.6,1.7-1.6,1.7h-0.4c-1.1,0-1.7-0.6-1.7-1.7V82.5c0-1.1,0.6-1.7,1.7-1.7h0.4c1.1,0,1.6,0.6,1.6,1.6v1.6
			C148.5,82.4,150,80.7,152.8,80.7L152.8,80.7z"/>
		<path class="st1" d="M155,90.3c0-6.8,4.7-9.8,9.5-9.8c4.8,0,9.6,3,9.6,9.8c0,6.9-4.7,9.9-9.5,9.9C159.7,100.2,155,97.2,155,90.3z
			 M170.4,90.3c0-4.1-2.4-6.7-5.9-6.7c-3.5,0-5.8,2.5-5.8,6.7c0,4.2,2.3,6.7,5.9,6.7C168.1,97,170.4,94.5,170.4,90.3z"/>
		<path class="st1" d="M193.3,80.9c1.1,0,1.6,0.6,1.6,1.6v15.6c0,1.1-0.6,1.7-1.6,1.7h-0.4c-1.1,0-1.7-0.6-1.7-1.7v-1.9
			c-0.9,2.2-3,3.9-6.2,3.9c-5.2,0-7.6-3-7.6-9v-8.6c0-1.1,0.6-1.7,1.7-1.7h0.4c1.1,0,1.7,0.6,1.7,1.7v8.3c0,4.1,1.6,6.1,5.1,6.1
			c3.6,0,5-2.3,5-6.5v-7.9c0-1.1,0.6-1.7,1.7-1.7L193.3,80.9L193.3,80.9z"/>
		<path class="st1" d="M199.4,104.2V82.5c0-1.1,0.6-1.7,1.7-1.7h0.4c1.1,0,1.7,0.6,1.7,1.7v1.9c1-2.4,3.5-4,6.7-4
			c4.4,0,8.6,3,8.6,9.8c0,6.8-4.3,9.8-8.7,9.8c-3.2,0-5.7-1.6-6.7-4v8.2c0,1.1-0.6,1.6-1.7,1.6h-0.4
			C200,105.9,199.4,105.3,199.4,104.2z M214.8,90.3c0-4.2-2.3-6.7-5.8-6.7c-3.5,0-5.9,2.5-5.9,6.7c0,4.2,2.4,6.7,5.8,6.7
			C212.4,97,214.8,94.4,214.8,90.3z"/>
	</g>
	<g class="st0">
		<path class="st2" d="M125,60.7v1.9c0,1.1-0.6,1.7-1.7,1.7H123c-1.1,0-1.7-0.6-1.7-1.7V40.9c0-1.1,0.6-1.7,1.7-1.7h0.4
			c1.1,0,1.7,0.6,1.7,1.7v8.2c1.1-2.6,3.7-4,6.7-4c4.7,0,8.7,3.3,8.7,9.8c0,6.5-4,9.9-8.6,9.9C128.7,64.7,126.1,63.2,125,60.7z
			 M136.7,54.8c0-4.1-2.4-6.7-5.9-6.7c-3.5,0-5.8,2.5-5.8,6.7c0,4.2,2.4,6.7,5.9,6.7C134.3,61.5,136.7,59,136.7,54.8z"/>
		<path class="st2" d="M159.5,45.4c1.1,0,1.7,0.6,1.7,1.6v15.6c0,1.1-0.6,1.7-1.7,1.7h-0.4c-1.1,0-1.7-0.6-1.7-1.7v-1.9
			c-0.9,2.2-3,3.9-6.2,3.9c-5.2,0-7.6-3-7.6-9V47c0-1.1,0.6-1.7,1.7-1.7h0.4c1.1,0,1.7,0.6,1.7,1.7v8.3c0,4.1,1.6,6.1,5.1,6.1
			c3.6,0,5-2.3,5-6.5V47c0-1.1,0.6-1.7,1.7-1.7L159.5,45.4L159.5,45.4z"/>
		<path class="st2" d="M165.4,40.9c0-1.3,0.9-2,2.2-2c1.2,0,2.2,0.7,2.2,2s-1,2-2.2,2C166.3,42.8,165.4,42.1,165.4,40.9z
			 M165.7,62.6V47c0-1.1,0.6-1.7,1.6-1.7h0.4c1,0,1.6,0.6,1.6,1.7v15.6c0,1.1-0.6,1.7-1.6,1.7h-0.4
			C166.2,64.3,165.7,63.7,165.7,62.6z"/>
		<path class="st2" d="M173.8,62.6V40.9c0-1.1,0.6-1.7,1.7-1.7h0.4c1.1,0,1.6,0.6,1.6,1.7v21.7c0,1.1-0.6,1.7-1.6,1.7h-0.4
			C174.3,64.3,173.8,63.7,173.8,62.6z"/>
		<path class="st2" d="M181.2,54.8c0-6.5,4-9.8,8.6-9.8c3,0,5.6,1.5,6.7,4.1v-8.2c0-1.1,0.6-1.7,1.7-1.7h0.4c1.1,0,1.7,0.6,1.7,1.7
			v21.7c0,1.1-0.6,1.7-1.7,1.7h-0.4c-1.1,0-1.7-0.6-1.7-1.7v-1.9c-1.1,2.5-3.7,4-6.7,4C185.2,64.7,181.2,61.4,181.2,54.8z
			 M196.6,54.8c0-4.1-2.4-6.7-5.9-6.7c-3.5,0-5.8,2.5-5.8,6.7c0,4.2,2.4,6.7,5.9,6.7C194.3,61.5,196.6,59,196.6,54.8z"/>
		<path class="st2" d="M204.4,40.9c0-1.3,0.9-2,2.2-2c1.2,0,2.2,0.7,2.2,2s-1,2-2.2,2C205.3,42.8,204.4,42.1,204.4,40.9z
			 M204.7,62.6V47c0-1.1,0.6-1.7,1.6-1.7h0.4c1,0,1.6,0.6,1.6,1.7v15.6c0,1.1-0.6,1.7-1.6,1.7h-0.4
			C205.3,64.3,204.7,63.7,204.7,62.6z"/>
		<path class="st2" d="M230.3,54v8.6c0,1.1-0.6,1.7-1.6,1.7h-0.4c-1.1,0-1.7-0.6-1.7-1.7v-8.3c0-4.1-1.6-6.1-5.1-6.1
			c-3.6,0-5,2.3-5,6.5v7.9c0,1.1-0.6,1.7-1.7,1.7h-0.4c-1.1,0-1.7-0.6-1.7-1.7V47c0-1.1,0.6-1.7,1.7-1.7h0.4c1.1,0,1.7,0.6,1.7,1.7
			v1.9c0.9-2.2,3-3.9,6.2-3.9C227.9,45.1,230.3,48.1,230.3,54z"/>
		<path class="st2" d="M251,45.4c1.1,0,1.6,0.6,1.6,1.7v14c0,7.1-3.3,10.1-9.6,10.1c-3.6,0-6.5-1.3-8.1-3.6c-0.7-1-0.2-1.8,0.9-2.1
			l0.4-0.1c0.9-0.2,1.5,0.1,2.1,0.9c1.1,1.3,2.8,2,4.8,2c3.7,0,5.8-1.8,5.8-6.6v-1.6c-1.1,2.5-3.7,3.9-6.7,3.9
			c-4.7,0-8.7-3.1-8.7-9.4c0-6.2,4-9.4,8.6-9.4c3,0,5.6,1.4,6.7,3.9V47c0-1.1,0.6-1.7,1.7-1.7H251L251,45.4z M249,54.4
			c0-4.1-2.3-6.5-5.9-6.5c-3.5,0-5.8,2.5-5.8,6.5c0,4.1,2.3,6.6,5.9,6.6C246.7,61,249,58.5,249,54.4z"/>
	</g>
	<g class="st0">
		<path class="st2" d="M121,5.4c0-1.3,0.9-2,2.2-2c1.2,0,2.2,0.7,2.2,2s-1,2-2.2,2C121.9,7.3,121,6.6,121,5.4z M121.3,27.1V11.5
			c0-1.1,0.6-1.7,1.6-1.7h0.4c1,0,1.6,0.6,1.6,1.7v15.6c0,1.1-0.6,1.7-1.6,1.7h-0.4C121.9,28.8,121.3,28.2,121.3,27.1z"/>
		<path class="st2" d="M139.3,9.6c5.2,0,7.6,3,7.6,9v8.6c0,1.1-0.6,1.7-1.6,1.7h-0.4c-1.1,0-1.6-0.6-1.6-1.7v-8.3
			c0-4.1-1.6-6.1-5.1-6.1c-3.6,0-5,2.3-5,6.5v7.9c0,1.1-0.6,1.7-1.7,1.7h-0.4c-1.1,0-1.6-0.6-1.6-1.7V11.5c0-1.1,0.6-1.7,1.6-1.7
			h0.4c1.1,0,1.7,0.6,1.7,1.7v1.9C134,11.2,136.1,9.6,139.3,9.6L139.3,9.6z"/>
		<path class="st2" d="M158.7,29c-4.9,0-7.1-2-7.1-7.8v-8.5h-1.1c-1.1,0-1.7-0.5-1.7-1.5s0.5-1.4,1.4-1.4h1.4v-2
			c0-1,0.5-1.6,1.5-1.8l0.5-0.1c1.2-0.3,1.8,0.3,1.8,1.5v2.4h3.9c1.1,0,1.7,0.5,1.7,1.4s-0.6,1.5-1.7,1.5h-3.9v8.1
			c0,3.9,1,5.2,3.9,5.2c1,0,1.7,0.4,1.8,1.3c0.1,1-0.3,1.6-1.4,1.7C159.4,29,159,29,158.7,29L158.7,29z"/>
		<path class="st2" d="M162.6,19.3c0-5.8,3.9-9.8,9.5-9.8c5.5,0,9,3.7,9.2,9.1c0,1.1-0.6,1.7-1.7,1.7h-13.4c0.1,3.7,2.4,5.7,6.1,5.7
			c2,0,3.3-0.5,4.5-1.6c0.7-0.6,1.2-1.2,2.1-0.9l0.4,0.1c1.2,0.3,1.4,0.9,0.8,1.8c-1.7,2.4-4.3,3.7-7.9,3.7
			C166.4,29.1,162.6,25.2,162.6,19.3z M177.8,17.4c-0.3-3-2.3-4.9-5.6-4.9c-3.2,0-5.4,1.7-5.8,4.9H177.8z"/>
		<path class="st2" d="M185,27.1V5.4c0-1.1,0.6-1.7,1.7-1.7h0.4c1.1,0,1.6,0.6,1.6,1.7v21.7c0,1.1-0.6,1.7-1.6,1.7h-0.4
			C185.6,28.8,185,28.2,185,27.1z"/>
		<path class="st2" d="M193.1,27.1V5.4c0-1.1,0.6-1.7,1.7-1.7h0.4c1.1,0,1.7,0.6,1.7,1.7v21.7c0,1.1-0.6,1.7-1.7,1.7h-0.4
			C193.7,28.8,193.1,28.2,193.1,27.1z"/>
		<path class="st2" d="M200.9,5.4c0-1.3,0.9-2,2.2-2c1.2,0,2.2,0.7,2.2,2s-1,2-2.2,2C201.8,7.3,200.9,6.6,200.9,5.4z M201.2,27.1
			V11.5c0-1.1,0.6-1.7,1.6-1.7h0.4c1,0,1.6,0.6,1.6,1.7v15.6c0,1.1-0.6,1.7-1.6,1.7h-0.4C201.8,28.8,201.2,28.2,201.2,27.1z"/>
		<path class="st2" d="M226,9.9c1.1,0,1.6,0.6,1.6,1.7v14c0,7.1-3.3,10.1-9.6,10.1c-3.6,0-6.5-1.3-8.1-3.6c-0.7-1-0.2-1.8,0.9-2.1
			l0.4-0.1c0.9-0.2,1.5,0.1,2.1,0.9c1.1,1.3,2.8,2,4.8,2c3.7,0,5.8-1.8,5.8-6.6v-1.6c-1.1,2.5-3.7,3.9-6.7,3.9
			c-4.7,0-8.7-3.1-8.7-9.4c0-6.2,4-9.4,8.6-9.4c3,0,5.6,1.4,6.7,3.9v-1.9c0-1.1,0.6-1.7,1.7-1.7H226L226,9.9z M224,18.9
			c0-4.1-2.3-6.5-5.9-6.5c-3.5,0-5.8,2.5-5.8,6.5c0,4.1,2.3,6.6,5.9,6.6C221.7,25.5,224,23,224,18.9z"/>
		<path class="st2" d="M231.5,19.3c0-5.8,3.9-9.8,9.5-9.8c5.5,0,9,3.7,9.2,9.1c0,1.1-0.6,1.7-1.7,1.7h-13.4c0.1,3.7,2.4,5.7,6.1,5.7
			c2,0,3.3-0.5,4.5-1.6c0.7-0.6,1.2-1.2,2.1-0.9l0.4,0.1c1.2,0.3,1.4,0.9,0.8,1.8c-1.7,2.4-4.3,3.7-7.9,3.7
			C235.4,29.1,231.5,25.2,231.5,19.3z M246.8,17.4c-0.3-3-2.3-4.9-5.6-4.9c-3.2,0-5.4,1.7-5.8,4.9H246.8z"/>
		<path class="st2" d="M271.5,18.5v8.6c0,1.1-0.6,1.7-1.6,1.7h-0.4c-1.1,0-1.7-0.6-1.7-1.7v-8.3c0-4.1-1.6-6.1-5.1-6.1
			c-3.6,0-5,2.3-5,6.5v7.9c0,1.1-0.6,1.7-1.7,1.7h-0.4c-1.1,0-1.7-0.6-1.7-1.7V11.5c0-1.1,0.6-1.7,1.7-1.7h0.4
			c1.1,0,1.7,0.6,1.7,1.7v1.9c0.9-2.2,3-3.9,6.2-3.9C269.1,9.6,271.5,12.6,271.5,18.5z"/>
		<path class="st2" d="M283.3,29c-4.9,0-7.1-2-7.1-7.8v-8.5h-1.1c-1.1,0-1.7-0.5-1.7-1.5s0.5-1.4,1.4-1.4h1.4v-2
			c0-1,0.5-1.6,1.5-1.8l0.5-0.1c1.2-0.3,1.8,0.3,1.8,1.5v2.4h3.9c1.1,0,1.7,0.5,1.7,1.4s-0.6,1.5-1.7,1.5H280v8.1
			c0,3.9,1,5.2,3.9,5.2c1,0,1.7,0.4,1.8,1.3c0.1,1-0.3,1.6-1.4,1.7C283.9,29,283.6,29,283.3,29L283.3,29z"/>
	</g>
	
		<linearGradient id="SVGID_1_" gradientUnits="userSpaceOnUse" x1="2.1364" y1="960.3373" x2="108.5364" y2="960.3373" gradientTransform="matrix(1 0 0 1 0 -905.3387)">
		<stop  offset="0" style="stop-color:#BEDE18"/>
		<stop  offset="0.307" style="stop-color:#6FC164"/>
		<stop  offset="0.5681" style="stop-color:#33AA9D"/>
		<stop  offset="0.7593" style="stop-color:#0E9CC1"/>
		<stop  offset="0.8602" style="stop-color:#0097CE"/>
		<stop  offset="1" style="stop-color:#0097CE"/>
	</linearGradient>
	<path class="st3" d="M19.9,62.3c4-4,4-10.6,0-14.6s-10.6-4-14.6,0s-4,10.6,0,14.6l0,0C9.3,66.3,15.8,66.3,19.9,62.3L19.9,62.3z
		 M65.7,12.1c0,5.7-4.7,10.4-10.4,10.4s-10.4-4.7-10.4-10.4S49.6,1.7,55.3,1.7S65.7,6.4,65.7,12.1z M65.7,97.9
		c0,5.7-4.7,10.4-10.4,10.4s-10.4-4.7-10.4-10.4c0-5.7,4.7-10.4,10.4-10.4S65.7,92.1,65.7,97.9z M108.7,54.9
		c0,5.7-4.7,10.4-10.4,10.4c-3.6,0-6.7-1.8-8.5-4.5c-2.1-3-5.7-4.7-9.3-4.7h-7.2c-3.7,0-7.3,1.7-9.3,4.7c-1.9,2.7-5,4.5-8.5,4.5
		c-5.7,0-10.4-4.7-10.4-10.4l0,0c0-5.7,4.7-10.4,10.4-10.4c3.6,0,6.7,1.8,8.5,4.5c2.1,3,5.7,4.7,9.3,4.7h7.2c3.7,0,7.3-1.7,9.3-4.7
		c1.9-2.7,5-4.5,8.5-4.5C104,44.5,108.6,49.2,108.7,54.9L108.7,54.9z M87.2,33.6c0,5.7-4.7,10.4-10.4,10.4c-3.6,0-6.7-1.8-8.5-4.5
		c-2.1-3-5.7-4.7-9.3-4.7h-7.2c-3.7,0-7.3,1.7-9.3,4.7c-1.9,2.7-5,4.5-8.5,4.5c-5.7,0-10.4-4.7-10.4-10.4l0,0
		c0-5.7,4.7-10.4,10.4-10.4c3.6,0,6.7,1.8,8.5,4.5c2.1,3,5.7,4.7,9.3,4.7H59c3.7,0,7.3-1.7,9.3-4.7c1.9-2.7,5-4.5,8.5-4.5
		C82.5,23.2,87.1,27.8,87.2,33.6L87.2,33.6z M87.2,76.4c0,5.7-4.7,10.4-10.4,10.4c-3.6,0-6.7-1.8-8.5-4.5c-2.1-3-5.7-4.7-9.3-4.7
		h-7.2c-3.7,0-7.3,1.7-9.3,4.7c-1.9,2.7-5,4.5-8.5,4.5c-5.7,0-10.4-4.7-10.4-10.4l0,0C23.6,70.7,28.3,66,34,66
		c3.6,0,6.7,1.8,8.5,4.5c2.1,3,5.7,4.7,9.3,4.7H59c3.7,0,7.3-1.7,9.3-4.7c1.9-2.7,5-4.5,8.5-4.5C82.5,66,87.1,70.7,87.2,76.4
		L87.2,76.4z"/>
</g>
</svg>
