<?xml version="1.0" encoding="utf-8"?>
<!-- Generator: Adobe Illustrator 25.3.1, SVG Export Plug-In . SVG Version: 6.00 Build 0)  -->
<svg version="1.1" id="Layer_1" xmlns="http://www.w3.org/2000/svg" xmlns:xlink="http://www.w3.org/1999/xlink" x="0px" y="0px"
	 viewBox="0 0 305.4 111.5" style="enable-background:new 0 0 305.4 111.5;" xml:space="preserve">
<style type="text/css">
	.st0{fill:#FFFFFF;}
	.st1{font-family:'UrbaneRounded-Medium';}
	.st2{font-size:33px;}
	.st3{fill:url(#SVGID_1_);}
</style>
<text transform="matrix(1 0 0 1 116.91 31.57)" class="st0 st1 st2">intelligent</text>
<text transform="matrix(1 0 0 1 116.91 67.07)" class="st0 st1 st2">building</text>
<text transform="matrix(1 0 0 1 116.91 102.57)" class="st0 st1 st2">group</text>
<linearGradient id="SVGID_1_" gradientUnits="userSpaceOnUse" x1="-9.182251e-02" y1="645.8" x2="106.3082" y2="645.8" gradientTransform="matrix(1 0 0 1 0 -588)">
	<stop  offset="0" style="stop-color:#BEDE18"/>
	<stop  offset="0.307" style="stop-color:#6FC164"/>
	<stop  offset="0.5681" style="stop-color:#33AA9D"/>
	<stop  offset="0.7593" style="stop-color:#0E9CC1"/>
	<stop  offset="0.8602" style="stop-color:#0097CE"/>
	<stop  offset="1" style="stop-color:#0097CE"/>
</linearGradient>
<path class="st3" d="M17.7,65.1c4-4,4-10.6,0-14.6s-10.6-4-14.6,0s-4,10.6,0,14.6l0,0C7.1,69.1,13.6,69.1,17.7,65.1L17.7,65.1z
	 M63.5,14.9c0,5.7-4.7,10.4-10.4,10.4s-10.4-4.7-10.4-10.4S47.4,4.5,53.1,4.5S63.5,9.2,63.5,14.9z M63.5,100.7
	c0,5.7-4.7,10.4-10.4,10.4s-10.4-4.7-10.4-10.4c0-5.7,4.7-10.4,10.4-10.4S63.5,94.9,63.5,100.7z M106.5,57.7
	c0,5.7-4.7,10.4-10.4,10.4c-3.6,0-6.7-1.8-8.5-4.5c-2.1-3-5.7-4.7-9.3-4.7h-7.2c-3.7,0-7.3,1.7-9.3,4.7c-1.9,2.7-5,4.5-8.5,4.5
	c-5.7,0-10.4-4.7-10.4-10.4l0,0c0-5.7,4.7-10.4,10.4-10.4c3.6,0,6.7,1.8,8.5,4.5c2.1,3,5.7,4.7,9.3,4.7h7.2c3.7,0,7.3-1.7,9.3-4.7
	c1.9-2.7,5-4.5,8.5-4.5C101.8,47.3,106.4,52,106.5,57.7L106.5,57.7z M85,36.4c0,5.7-4.7,10.4-10.4,10.4c-3.6,0-6.7-1.8-8.5-4.5
	c-2.1-3-5.7-4.7-9.3-4.7h-7.2c-3.7,0-7.3,1.7-9.3,4.7c-1.9,2.7-5,4.5-8.5,4.5c-5.7,0-10.4-4.7-10.4-10.4l0,0
	c0-5.7,4.7-10.4,10.4-10.4c3.6,0,6.7,1.8,8.5,4.5c2.1,3,5.7,4.7,9.3,4.7h7.2c3.7,0,7.3-1.7,9.3-4.7c1.9-2.7,5-4.5,8.5-4.5
	C80.3,26,84.9,30.6,85,36.4L85,36.4z M85,79.2c0,5.7-4.7,10.4-10.4,10.4c-3.6,0-6.7-1.8-8.5-4.5c-2.1-3-5.7-4.7-9.3-4.7h-7.2
	c-3.7,0-7.3,1.7-9.3,4.7c-1.9,2.7-5,4.5-8.5,4.5c-5.7,0-10.4-4.7-10.4-10.4l0,0c0-5.7,4.7-10.4,10.4-10.4c3.6,0,6.7,1.8,8.5,4.5
	c2.1,3,5.7,4.7,9.3,4.7h7.2c3.7,0,7.3-1.7,9.3-4.7c1.9-2.7,5-4.5,8.5-4.5C80.3,68.8,84.9,73.5,85,79.2L85,79.2z"/>
</svg>
