<svg id="Layer_1" data-name="Layer 1" xmlns="http://www.w3.org/2000/svg" width="965.31" height="379.72" viewBox="0 0 965.31 379.72"><rect y="4.19" width="441.02" height="99.35" rx="18.4" style="fill:#4f5864"/><path id="Path_81" data-name="Path 81" d="M379.17,240.34a10.63,10.63,0,0,1-7.41,2.82H293a38.94,38.94,0,0,0,12.39,26.17,38,38,0,0,0,26.55,9.88,41.55,41.55,0,0,0,17.65-3.14A44.66,44.66,0,0,0,361.15,268a12.46,12.46,0,0,1,6.49-2,8.46,8.46,0,0,1,6.37,2.66,8.82,8.82,0,0,1,2.58,6.27,11.14,11.14,0,0,1-4.48,8.53,52.56,52.56,0,0,1-17.25,11,56.57,56.57,0,0,1-21.92,4.48A65.09,65.09,0,0,1,301,291.18a53.22,53.22,0,0,1-21.28-21.28A63.36,63.36,0,0,1,272.25,239,68.28,68.28,0,0,1,280,206a55.71,55.71,0,0,1,20.38-21.85,52.44,52.44,0,0,1,54-.19,56.16,56.16,0,0,1,20.16,20.34,58.5,58.5,0,0,1,7.72,29.11A9.53,9.53,0,0,1,379.17,240.34ZM305.83,203.4a34.73,34.73,0,0,0-12.08,21.85h66.16v-1.78a27.38,27.38,0,0,0-10.65-19.3,33.55,33.55,0,0,0-21.58-7.72,34.76,34.76,0,0,0-21.73,7Z" style="fill:#4f5864"/><path id="Path_83" data-name="Path 83" d="M507.48,293.61a10.29,10.29,0,0,1-7.72,3.14,10,10,0,0,1-7.38-3.14,10.58,10.58,0,0,1-3-7.72V189a10.59,10.59,0,0,1,3-7.72,10,10,0,0,1,7.49-3.13,10.23,10.23,0,0,1,7.72,3.13,10.59,10.59,0,0,1,3,7.72v96.93a10.6,10.6,0,0,1-3.13,7.72Z" style="fill:#4f5864"/><path id="Path_84" data-name="Path 84" d="M622.48,182.25q11.58,5.64,11.59,14.36a10.54,10.54,0,0,1-2.47,6.79,7.67,7.67,0,0,1-6.25,3,9.41,9.41,0,0,1-4.59-.92,43.9,43.9,0,0,1-4.6-2.9,25,25,0,0,0-4.25-3.13,29.67,29.67,0,0,0-7.57-2.4,49,49,0,0,0-9-.89,39,39,0,0,0-20.57,5.37,36.53,36.53,0,0,0-13.89,14.9,45.31,45.31,0,0,0-4.9,21.16,46.38,46.38,0,0,0,4.78,21.27,36.35,36.35,0,0,0,13.55,14.75,37.2,37.2,0,0,0,19.92,5.4,42.5,42.5,0,0,0,18.84-3.58c1-.62,2.43-1.58,4.26-2.93a25,25,0,0,1,3.86-2.67,8.58,8.58,0,0,1,4.17-.89,9,9,0,0,1,7,2.78,10.26,10.26,0,0,1,2.82,7.44,12.37,12.37,0,0,1-5.94,9.27A47.77,47.77,0,0,1,613.4,296a75.94,75.94,0,0,1-21.35,2.89A56.56,56.56,0,0,1,561.9,291a53.44,53.44,0,0,1-20-21.93,68.23,68.23,0,0,1-7-31.22,65.62,65.62,0,0,1,7.38-31.23,54.88,54.88,0,0,1,20.6-22,57.56,57.56,0,0,1,30.24-7.95,68.62,68.62,0,0,1,29.41,5.6Z" style="fill:#4f5864"/><path id="Path_86" data-name="Path 86" d="M960.56,226.14V285.9a10.59,10.59,0,0,1-2.93,7.72,10.08,10.08,0,0,1-7.72,3,10.27,10.27,0,0,1-7.72-3.14,10.57,10.57,0,0,1-3-7.72v-59.4q0-29.34-24.64-29.34a31.85,31.85,0,0,0-15.78,3.86,27.93,27.93,0,0,0-11,10.62,28.79,28.79,0,0,0-3.86,14.78V285.9a10.59,10.59,0,0,1-3,7.72,10.27,10.27,0,0,1-7.72,3.13,10.07,10.07,0,0,1-7.72-3,10.58,10.58,0,0,1-2.93-7.72V226.14a36,36,0,0,0-5.44-21.31q-5.72-7.72-18.57-7.72a30.11,30.11,0,0,0-21.89,8.34A27.69,27.69,0,0,0,808,226.14V285.9a10.59,10.59,0,0,1-3,7.72,11.17,11.17,0,0,1-15.44,0,10.69,10.69,0,0,1-2.89-7.72V190.09a10.52,10.52,0,0,1,3-7.72,10,10,0,0,1,7.65-3,10.24,10.24,0,0,1,7.72,3.13,10.59,10.59,0,0,1,3,7.72v7.72a49.39,49.39,0,0,1,15.44-14.67,40.07,40.07,0,0,1,21.15-5.92q27.8,0,36.06,24.64a47.16,47.16,0,0,1,16.33-17,43,43,0,0,1,24.2-7.72Q960.53,177.35,960.56,226.14Z" style="fill:#535966"/><path id="Path_85" data-name="Path 85" d="M757.87,269.33a57.29,57.29,0,0,1-21.39,21.73,61,61,0,0,1-59.8,0,56.8,56.8,0,0,1-21.39-21.73A62.69,62.69,0,0,1,647.57,238a63.93,63.93,0,0,1,7.72-31.58,56.57,56.57,0,0,1,21.4-21.95,61,61,0,0,1,59.8,0,57,57,0,0,1,21.38,22A64,64,0,0,1,765.59,238,62.65,62.65,0,0,1,757.87,269.33Zm-18.42-52.92a36.78,36.78,0,0,0-65.62,0A45.5,45.5,0,0,0,668.77,238a44.29,44.29,0,0,0,5.06,21.23,36.92,36.92,0,0,0,65.62,0A44.18,44.18,0,0,0,744.51,238,45.38,45.38,0,0,0,739.45,216.41Z" style="fill:#4f5864"/><path id="Path_82" data-name="Path 82" d="M432.1,200.15v66.74q0,11.19,10.08,11.2a15.37,15.37,0,0,0,4.25-.81,17.81,17.81,0,0,1,4.29-.77,6.1,6.1,0,0,1,4.9,2.46,9.39,9.39,0,0,1-3.36,14.32,22.31,22.31,0,0,1-12.08,3.36,54.66,54.66,0,0,1-13.55-1.54,20.36,20.36,0,0,1-11-7.95,32.24,32.24,0,0,1-4.82-19.3V200.15h-13a9.5,9.5,0,0,1-9.7-9.29c0-.18,0-.36,0-.55a9.26,9.26,0,0,1,2.78-6.94A9.79,9.79,0,0,1,398,180.7h13V161.85a10.48,10.48,0,0,1,3.05-7.72,10.17,10.17,0,0,1,7.72-3.11,10,10,0,0,1,7.49,3.13,10.59,10.59,0,0,1,3,7.7v18.84H450.7a9.58,9.58,0,0,1,9.86,9.28v.58a9.15,9.15,0,0,1-2.9,6.94,9.75,9.75,0,0,1-7,2.66Z" style="fill:#4f5864"/><path id="Path_1490" data-name="Path 1490" d="M665.64,141.25h198a40.83,40.83,0,0,0,1-81.65h-1a41.46,41.46,0,0,0-13.12,2.1,45.35,45.35,0,0,0,2.89-15.92A46.58,46.58,0,0,0,761,38.25,41.54,41.54,0,0,0,684.22,59.6a39.09,39.09,0,0,0,.25,4.46,41.74,41.74,0,0,0-18.83-4.46,40.83,40.83,0,1,0-1,81.65Z" style="fill:#4f5864"/><g id="Group_333" data-name="Group 333"><path id="Path_1491" data-name="Path 1491" d="M724.92,377.64a44.56,44.56,0,0,1-13.85,2.08q-26,0-26-25.8,0-24.42,26-24.41a44.85,44.85,0,0,1,13.85,2.07v5.55a36.76,36.76,0,0,0-13.16-2.43q-20.25,0-20.26,19.22,0,20.61,20.26,20.61a36.76,36.76,0,0,0,13.16-2.43Z" style="fill:#4f5864"/><path id="Path_1492" data-name="Path 1492" d="M752.53,329.85v44.33h25.91v5.19H746.12V329.85Z" style="fill:#4f5864"/><path id="Path_1493" data-name="Path 1493" d="M789.76,354.68q0-25.18,24.86-25.18,24.5,0,24.49,25.18t-24.49,25Q789.76,379.72,789.76,354.68Zm24.86,19.84q17.75,0,17.73-20,0-19.77-17.73-19.77-18.11,0-18.11,19.77,0,20.05,18.12,20Z" style="fill:#4f5864"/><path id="Path_1494" data-name="Path 1494" d="M859.45,360.25v-30.4h6.41v30.4q0,14.28,14.2,14.27t14.2-14.27v-30.4h6.4v30.4q0,19.47-20.6,19.47T859.45,360.25Z" style="fill:#4f5864"/><path id="Path_1495" data-name="Path 1495" d="M922.73,379.37V329.85h18q24.59,0,24.58,23.41,0,26.12-24.58,26.11Zm18-5.19q18.18,0,18.18-20.92,0-18.21-18.18-18.22h-11.6v39.14Z" style="fill:#4f5864"/></g><path id="Path_1496" data-name="Path 1496" d="M616.16,138.38h-38c-23.91,0-60.2,2.46-77.94,16.06,7.8-16.33,27.08-36.89,74.83-36.89h34.55a57.89,57.89,0,0,0,9,17.38S619,136.92,616.16,138.38Z" style="fill:#0f6a5e"/><path id="Path_1497" data-name="Path 1497" d="M607.93,90.07c-2.56,6.85-1.25,14.57.21,21.75H575.06c-44.54,0-65.95,20.92-76.26,37.15,10-24.82,34.67-60.4,96-60.4h12S608.31,89.07,607.93,90.07Z" style="fill:#39a47b"/><path d="M54.25,40.08a10.19,10.19,0,0,1,3.55,3.84,11.12,11.12,0,0,1,1.32,5.37A11.33,11.33,0,0,1,57.8,54.7a10.31,10.31,0,0,1-3.55,3.93,8.83,8.83,0,0,1-4.87,1.44H40v11a2.37,2.37,0,0,1-.65,1.69,2.12,2.12,0,0,1-1.63.69,2.16,2.16,0,0,1-1.67-.67,2.45,2.45,0,0,1-.62-1.71V41a2.39,2.39,0,0,1,2.39-2.38H49.38A8.89,8.89,0,0,1,54.25,40.08Zm-2.38,14.6a6,6,0,0,0,1.8-2.31,7.18,7.18,0,0,0,.68-3.08A6.5,6.5,0,0,0,52.88,45a4.42,4.42,0,0,0-3.5-1.76H40V55.55h9.34A4,4,0,0,0,51.87,54.68Z" style="fill:#fff"/><path d="M101.66,65.14a16.47,16.47,0,0,1-6,6.43,17,17,0,0,1-17.29,0,16.49,16.49,0,0,1-6-6.43A20.23,20.23,0,0,1,72.4,47a16.49,16.49,0,0,1,6-6.43,17,17,0,0,1,17.29,0,16.47,16.47,0,0,1,6,6.43,20.23,20.23,0,0,1,0,18.19ZM97.22,49.32a11.73,11.73,0,0,0-4.15-4.73,10.89,10.89,0,0,0-6-1.71,11.05,11.05,0,0,0-6,1.69,11.41,11.41,0,0,0-4.15,4.69,16.08,16.08,0,0,0,0,13.52A11.62,11.62,0,0,0,81,67.5a11.5,11.5,0,0,0,12.07,0,11.77,11.77,0,0,0,4.15-4.72,15.94,15.94,0,0,0,0-13.46Z" style="fill:#fff"/><path d="M158.12,39.21a2.3,2.3,0,0,1,.79,1.83,2.68,2.68,0,0,1-.15.85L148.48,71.94a1.77,1.77,0,0,1-.82,1.07,2.89,2.89,0,0,1-1.32.42A2.56,2.56,0,0,1,145,73a2.33,2.33,0,0,1-.94-1.15l-7.75-18.13-7.7,18.13a2.3,2.3,0,0,1-1,1.15,2.6,2.6,0,0,1-1.38.39A2.51,2.51,0,0,1,125,73a1.87,1.87,0,0,1-.8-1l-10.28-30a2.68,2.68,0,0,1-.15-.85,2.29,2.29,0,0,1,.82-1.81,2.58,2.58,0,0,1,3.2-.3,2,2,0,0,1,.85,1.12L127,64.94l7.2-17.69a2.47,2.47,0,0,1,.9-1.09,2.44,2.44,0,0,1,2.68,0,2.45,2.45,0,0,1,.89,1.09l7,17.69L154,40.05a1.86,1.86,0,0,1,.85-1.14,2.75,2.75,0,0,1,1.49-.4A2.56,2.56,0,0,1,158.12,39.21Z" style="fill:#fff"/><path d="M192.47,69.56a2.31,2.31,0,0,1,.67,1.64,2.11,2.11,0,0,1-.67,1.61,2.41,2.41,0,0,1-1.72.62H173.47a2.37,2.37,0,0,1-2.39-2.38V41a2.39,2.39,0,0,1,2.39-2.38h17.28a2.38,2.38,0,0,1,1.72.64,2.29,2.29,0,0,1,.67,1.69,2.12,2.12,0,0,1-.67,1.62,2.45,2.45,0,0,1-1.72.62H176V53.36h12.52a2.38,2.38,0,0,1,1.71.65,2.17,2.17,0,0,1,.67,1.64,2.08,2.08,0,0,1-.67,1.64,2.47,2.47,0,0,1-1.71.59H176v11h14.75A2.31,2.31,0,0,1,192.47,69.56Z" style="fill:#fff"/><path d="M233.62,70.33a2.08,2.08,0,0,1,.3,1.06,1.81,1.81,0,0,1-.67,1.55,2.66,2.66,0,0,1-1.62.49A3.07,3.07,0,0,1,230,73a6.27,6.27,0,0,1-2.43-2.74,12.83,12.83,0,0,1-.94-5.56,4.44,4.44,0,0,0-1.49-3.68,6,6,0,0,0-3.88-1.19h-10V71.05a2.48,2.48,0,0,1-.6,1.71,2,2,0,0,1-1.54.67,3,3,0,0,1-2-.69,2.14,2.14,0,0,1-.82-1.69V41a2.39,2.39,0,0,1,2.39-2.38h13.95A9.5,9.5,0,0,1,227.61,40a9.87,9.87,0,0,1,3.58,3.62,10.19,10.19,0,0,1,1.34,5.19,10.06,10.06,0,0,1-5.31,8.79,7.4,7.4,0,0,1,2.9,2.64,7.92,7.92,0,0,1,1.17,3.92,28.36,28.36,0,0,0,.44,3.85,2.15,2.15,0,0,0,1.1,1.47A2.64,2.64,0,0,1,233.62,70.33ZM225,54.75a6.42,6.42,0,0,0,1.82-2.4,8.18,8.18,0,0,0,.69-3.41,5.94,5.94,0,0,0-1.46-4,4.61,4.61,0,0,0-3.55-1.66H211.27V55.75H222.6A4.28,4.28,0,0,0,225,54.75Z" style="fill:#fff"/><path d="M268.47,69.56a2.27,2.27,0,0,1,.67,1.64,2.08,2.08,0,0,1-.67,1.61,2.41,2.41,0,0,1-1.72.62H249.47a2.37,2.37,0,0,1-2.39-2.38V41a2.39,2.39,0,0,1,2.39-2.38h17.28a2.38,2.38,0,0,1,1.72.64,2.25,2.25,0,0,1,.67,1.69,2.08,2.08,0,0,1-.67,1.62,2.45,2.45,0,0,1-1.72.62H252V53.36h12.52a2.38,2.38,0,0,1,1.71.65,2.17,2.17,0,0,1,.67,1.64,2.08,2.08,0,0,1-.67,1.64,2.47,2.47,0,0,1-1.71.59H252v11h14.75A2.31,2.31,0,0,1,268.47,69.56Z" style="fill:#fff"/><path d="M305,41a14.43,14.43,0,0,1,5,6.29,22,22,0,0,1,1.69,8.77A22.11,22.11,0,0,1,310,64.86a14.24,14.24,0,0,1-5,6.26,13.67,13.67,0,0,1-8,2.31H284.74a2.37,2.37,0,0,1-2.39-2.38V41a2.39,2.39,0,0,1,2.39-2.38H297A13.61,13.61,0,0,1,305,41Zm-.89,24.27a15.63,15.63,0,0,0,2.53-9.21A15.52,15.52,0,0,0,304,46.86a8.65,8.65,0,0,0-7.57-3.63h-9.19V68.86h9.19Q301.53,68.86,304.06,65.26Z" style="fill:#fff"/><path d="M370.05,57.56a8.61,8.61,0,0,1,1.77,5.64q0,5.52-3.21,7.87a12.76,12.76,0,0,1-7.82,2.36H348a2.36,2.36,0,0,1-2.38-2.38V41A2.37,2.37,0,0,1,348,38.66h12.77q4.51,0,6.88,2.23A8.51,8.51,0,0,1,370,47.35a7.89,7.89,0,0,1-1.15,4.25,7.42,7.42,0,0,1-3.32,2.86A9.7,9.7,0,0,1,370.05,57.56Zm-6.4-13a4.9,4.9,0,0,0-3.56-1.22H350.7V53h9.49a5,5,0,0,0,3.38-1.32,4.74,4.74,0,0,0,1.34-3.6A4.7,4.7,0,0,0,363.65,44.55Zm1.46,22.9a5.34,5.34,0,0,0,1.64-4.25c0-3.68-2.09-5.51-6.26-5.51H350.7V68.86h10A6.47,6.47,0,0,0,365.11,67.45Z" style="fill:#fff"/><path d="M407.33,42.39l-10.68,15V71.05a2.35,2.35,0,0,1-.67,1.69,2.18,2.18,0,0,1-1.61.69A2.37,2.37,0,0,1,392,71.05V57L381.35,42.68a2.91,2.91,0,0,1-.69-1.79,2.14,2.14,0,0,1,.79-1.68,2.56,2.56,0,0,1,1.74-.7,2.34,2.34,0,0,1,1.94,1.09l9.34,12.92,9-12.87a2.35,2.35,0,0,1,2-1.14,2.21,2.21,0,0,1,1.63.7,2.26,2.26,0,0,1,.7,1.68A2.89,2.89,0,0,1,407.33,42.39Z" style="fill:#fff"/></svg>