<?xml version="1.0" encoding="utf-8"?>
<!-- Generator: Adobe Illustrator 25.4.1, SVG Export Plug-In . SVG Version: 6.00 Build 0)  -->
<svg version="1.1" id="Layer_1" xmlns="http://www.w3.org/2000/svg" xmlns:xlink="http://www.w3.org/1999/xlink" x="0px" y="0px"
	 viewBox="0 0 281.9 88.9" style="enable-background:new 0 0 281.9 88.9;" xml:space="preserve">
<style type="text/css">
	.st0{display:none;}
	.st1{fill:#465262;}
</style>
<g id="Layer_1_copy" class="st0">
</g>
<g id="Layer_2_00000132081837503639498330000003987924102303887512_">
	<g>
		<path class="st1" d="M42.4,82.4c0,0-14.4-9.6-21.3-22.2c-12.4-22.7,4.4-32.7,8.6-35.7C46.4,12.6,53.1,1.8,53.1,1.8s-3.7,23-15,27
			C38.1,28.9-0.7,40.8,42.4,82.4"/>
		<path class="st1" d="M48.2,27c-0.7,0.5-3.5,2.3-3.5,2.3c2.6-0.2,5.7,0.4,8,1.5c10.8-7.7,13.6-20.4,13.6-20.4S61.3,18,48.2,27"/>
		<path class="st1" d="M74.9,70.4c0,0-0.3,0.1-0.8,0.4c-0.5,0.2-1.3,0.5-2.3,0.7c-0.5,0.1-1.1,0.2-1.7,0.3S68.8,72,68,72
			c-0.7,0-1.6,0-2.4,0c-0.8-0.1-1.7-0.2-2.7-0.3c-1.8-0.3-3.8-1-5.7-1.9c-1-0.5-1.9-1-2.9-1.6s-1.9-1.3-2.8-2
			c-0.5-0.4-0.9-0.8-1.3-1.2c-0.2-0.2-0.4-0.4-0.6-0.6l-0.3-0.2C49.2,64.1,49.1,64,49,64c-0.8-0.6-1.7-1.2-2.7-1.6
			c-0.9-0.4-1.9-0.7-2.9-0.8s-2,0-2.8,0.3c-1.8,0.5-3.2,1.8-3.6,3.6c-0.1,0.4-0.1,0.9,0,1.4s0.2,1,0.4,1.5c0.4,1,0.9,1.9,1.6,2.7
			l0.1,0.1l0,0l0,0l0,0l0.1,0.2l0.3,0.3c0.2,0.2,0.4,0.4,0.6,0.6c0.4,0.4,0.8,0.8,1.2,1.1c0.8,0.7,1.6,1.4,2.4,2
			c1.6,1.3,3.2,2.4,4.7,3.4s2.9,1.9,4.1,2.6c1.2,0.8,2.4,1.4,3.3,1.9c1.8,1,2.9,1.6,2.9,1.6s-1.1-0.5-3-1.4c-0.9-0.5-2.1-1-3.4-1.7
			s-2.8-1.4-4.3-2.3c-1.6-0.9-3.2-1.9-5-3.1c-0.9-0.6-1.7-1.2-2.6-1.9c-0.4-0.3-0.9-0.7-1.3-1.1c-0.2-0.2-0.4-0.4-0.6-0.6l-0.3-0.3
			L38,72.4l-0.2-0.2c-0.8-0.8-1.6-1.8-2.3-2.9c-0.3-0.6-0.6-1.2-0.8-1.8c-0.2-0.7-0.3-1.4-0.3-2.1c0-1.5,0.5-3,1.5-4.2
			s2.3-2,3.7-2.5c1.4-0.5,2.9-0.5,4.2-0.4c1.4,0.2,2.7,0.6,3.9,1.2c1.2,0.6,2.3,1.3,3.2,2.2c0.1,0.1,0.2,0.2,0.4,0.3l0.4,0.3
			c0.2,0.2,0.4,0.4,0.6,0.6c0.4,0.4,0.8,0.8,1.2,1.1c0.8,0.7,1.6,1.4,2.4,2s1.7,1.2,2.5,1.7s1.7,0.9,2.5,1.3s1.7,0.7,2.5,0.9
			c0.8,0.3,1.6,0.4,2.4,0.6c0.8,0.1,1.5,0.3,2.2,0.3c0.7,0.1,1.4,0.1,2,0.1s1.2,0,1.7-0.1c1-0.1,1.8-0.2,2.4-0.3
			C74.6,70.5,74.9,70.4,74.9,70.4"/>
		<path class="st1" d="M72.7,64.4c0,0,0.1,1.1,0.2,1.6c1.4,7.6,9.2,2,9.2,2S77.4,67.1,72.7,64.4"/>
		<path class="st1" d="M14,38.7c0,0-25.1,29.9,10.8,48C24.9,86.6-5.5,69.3,14,38.7"/>
		<path class="st1" d="M54.3,44.6l5,5.3C56.1,52.6,54.3,44.6,54.3,44.6 M62.9,47.2C59.1,31,44.5,28.6,34.3,34.1
			c-8.5,4.6-13.4,14.8-3.3,33.1c0,0-3.2-9.5,0-13.1c0,0-1,4.1,2,8.1c0,0-2-6.8,4.4-9c7-2.4,16.5,1.1,24.9,7.3c3,2.2,5.2,3.9,9.5,3.4
			C71.9,63.9,66.1,60.3,62.9,47.2"/>
		<path class="st1" d="M105.4,38.5h-5v8.1h4.9c3,0,4.4-1.5,4.4-4.1C109.8,40,108.4,38.5,105.4,38.5 M105.9,31.8c8,0,12,4.6,12,10.3
			c0,4.1-2.2,8-7.3,9.5l7.6,13h-9l-6.8-12.4h-2v12.4h-8V31.8H105.9z"/>
		<polygon class="st1" points="142.9,38.2 130.9,38.2 130.9,44.8 141.5,44.8 141.5,51 130.9,51 130.9,58.2 142.9,58.2 142.9,64.6 
			122.9,64.6 122.9,31.8 142.9,31.8 		"/>
		<polygon class="st1" points="177.4,31.8 177.4,64.6 169.4,64.6 156.1,44.4 156.1,64.6 148.1,64.6 148.1,31.8 156.1,31.8 
			169.4,52.1 169.4,31.8 		"/>
		<path class="st1" d="M197.5,40.6l-4,12h8.1L197.5,40.6z M203.6,58.8h-12.2l-2,5.8h-8.3l11.8-32.7h9.2l11.8,32.7h-8.4L203.6,58.8z"
			/>
		<path class="st1" d="M230.5,38.5h-4.9v8.1h4.9c3,0,4.4-1.5,4.4-4.1C234.9,40,233.5,38.5,230.5,38.5 M231,31.8c8,0,12,4.6,12,10.3
			c0,4.1-2.2,8-7.3,9.5l7.6,13h-9l-6.8-12.4h-1.9v12.4h-8V31.8H231z"/>
		<path class="st1" d="M259.7,57.7c6,0,9.6-3.4,9.6-9.5c0-6-3.5-9.6-9.6-9.6h-3.8v19L259.7,57.7L259.7,57.7z M277.4,48.2
			c0,9.7-6.7,16.4-17.2,16.4h-12.3V31.8h12.3C270.7,31.8,277.4,38.5,277.4,48.2"/>
		<polygon class="st1" points="92.5,72.7 99.1,72.7 99.1,73.7 93.7,73.7 93.7,78.4 98.3,78.4 98.3,79.4 93.7,79.4 93.7,85.1 
			92.5,85.1 		"/>
		<rect x="102.9" y="72.7" class="st1" width="1.2" height="12.3"/>
		<path class="st1" d="M112.5,73.8H110v5.1h2.5c2,0,2.9-1.1,2.9-2.6S114.5,73.8,112.5,73.8 M112.5,72.7c2.9,0,4.2,1.6,4.2,3.6
			c0,1.7-1,3.1-3,3.5l3.2,5.2h-1.5l-3.1-5.2H110V85h-1.2V72.7C108.8,72.7,112.5,72.7,112.5,72.7z"/>
		<polygon class="st1" points="127.3,73.7 122.1,73.7 122.1,78.3 126.8,78.3 126.8,79.4 122.1,79.4 122.1,84 127.3,84 127.3,85.1 
			120.9,85.1 120.9,72.7 127.3,72.7 		"/>
		<path class="st1" d="M142.4,74.4l-2.4,6.7h4.9L142.4,74.4z M145.3,82.1h-5.6l-1.1,2.9h-1.3l4.5-12.2h1.4l4.5,12.2h-1.3L145.3,82.1
			z"/>
		<polygon class="st1" points="160.7,72.7 160.7,85.1 159.4,85.1 152.6,74.7 152.6,85.1 151.4,85.1 151.4,72.7 152.6,72.7 
			159.4,83.1 159.4,72.7 		"/>
		<path class="st1" d="M168.9,84c3.5,0,5.3-1.9,5.3-5.1s-1.8-5.2-5.3-5.2h-2.4V84C166.5,84,168.9,84,168.9,84z M175.4,78.9
			c0,3.8-2.4,6.1-6.5,6.1h-3.7V72.7h3.7C173,72.7,175.4,75.1,175.4,78.9"/>
		<path class="st1" d="M189.8,85.2c-2.5,0-4.1-1.4-4.2-3.3h1.3c0.1,1,0.9,2.3,2.9,2.3c1.7,0,2.7-1,2.7-2.3c0-3.6-6.8-1.3-6.8-6
			c0-1.9,1.6-3.3,4-3.3c2.3,0,3.8,1.3,4,3h-1.3c-0.1-0.9-1-1.9-2.7-1.9c-1.4,0-2.6,0.8-2.6,2.2c0,3.6,6.8,1.4,6.8,6
			C193.8,83.5,192.4,85.2,189.8,85.2"/>
		<polygon class="st1" points="204.4,73.7 199.2,73.7 199.2,78.3 203.8,78.3 203.8,79.4 199.2,79.4 199.2,84 204.4,84 204.4,85.1 
			197.9,85.1 197.9,72.7 204.4,72.7 		"/>
		<path class="st1" d="M214,72.6c2.8,0,4.8,1.4,5.7,3.7h-1.4c-0.7-1.6-2.1-2.7-4.2-2.7c-2.7,0-4.8,2-4.8,5.2s2.1,5.2,4.8,5.2
			c2.1,0,3.5-1,4.2-2.6h1.4c-0.9,2.3-2.9,3.7-5.7,3.7c-3.4,0-6-2.6-6-6.3C208,75.2,210.6,72.6,214,72.6"/>
		<path class="st1" d="M223.9,72.7h1.2v7.8c0,2.6,1.3,3.6,3.3,3.6c1.9,0,3.2-1,3.2-3.6v-7.8h1.2v7.7c0,3.3-2,4.7-4.5,4.7
			s-4.5-1.4-4.5-4.7L223.9,72.7L223.9,72.7z"/>
		<path class="st1" d="M241.1,73.8h-2.5v5.1h2.5c2,0,2.9-1.1,2.9-2.6S243.1,73.8,241.1,73.8 M241.1,72.7c2.9,0,4.2,1.6,4.2,3.6
			c0,1.7-1,3.1-3,3.5l3.2,5.2H244l-3.1-5.2h-2.3V85h-1.2V72.7C237.4,72.7,241.1,72.7,241.1,72.7z"/>
		<rect x="249.5" y="72.7" class="st1" width="1.2" height="12.3"/>
		<polygon class="st1" points="254.4,72.7 262.5,72.7 262.5,73.7 259.1,73.7 259.1,85.1 257.8,85.1 257.8,73.7 254.4,73.7 		"/>
		<polygon class="st1" points="265.2,72.7 266.6,72.7 269.8,79.1 273,72.7 274.4,72.7 270.4,80.3 270.4,85.1 269.2,85.1 269.2,80.3 
					"/>
	</g>
</g>
</svg>
