<svg id="Layer_1" data-name="Layer 1" xmlns="http://www.w3.org/2000/svg" width="62.89mm" height="18.64mm" viewBox="0 0 178.28 52.85"><path d="M27.67,37.68a2.82,2.82,0,0,1-1.92.73H5.34a10.09,10.09,0,0,0,3.21,6.78,9.88,9.88,0,0,0,6.88,2.55A10.79,10.79,0,0,0,20,46.93,11.39,11.39,0,0,0,23,44.84a3.34,3.34,0,0,1,1.68-.52,2.18,2.18,0,0,1,1.65.7A2.28,2.28,0,0,1,27,46.64a2.89,2.89,0,0,1-1.16,2.21,13.75,13.75,0,0,1-4.47,2.84,14.68,14.68,0,0,1-5.68,1.16,16.78,16.78,0,0,1-8.27-2,13.76,13.76,0,0,1-5.51-5.5,16.43,16.43,0,0,1-1.94-8,17.65,17.65,0,0,1,2-8.55,14.46,14.46,0,0,1,5.28-5.66,13.62,13.62,0,0,1,14-.06,14.68,14.68,0,0,1,5.22,5.28,15.12,15.12,0,0,1,2,7.54A2.48,2.48,0,0,1,27.67,37.68Zm-19-9.57a9,9,0,0,0-3.13,5.66H22.68V33.3a7.11,7.11,0,0,0-2.76-5,8.73,8.73,0,0,0-5.59-2A9,9,0,0,0,8.7,28.11Z" style="fill:#4f5865"/><path d="M41.38,27.27V44.55c0,1.94.87,2.9,2.61,2.9a4,4,0,0,0,1.1-.2,4.51,4.51,0,0,1,1.11-.2,1.58,1.58,0,0,1,1.27.64A2.44,2.44,0,0,1,48,49.31,2.48,2.48,0,0,1,46.6,51.4a5.79,5.79,0,0,1-3.13.87A14.21,14.21,0,0,1,40,51.86a5.22,5.22,0,0,1-2.84-2.06,8.29,8.29,0,0,1-1.25-5V27.27H32.51A2.48,2.48,0,0,1,30,24.72a2.38,2.38,0,0,1,.72-1.8,2.54,2.54,0,0,1,1.83-.7h3.36V17.35a2.71,2.71,0,0,1,.79-2,2.64,2.64,0,0,1,2-.81,2.59,2.59,0,0,1,1.94.81,2.74,2.74,0,0,1,.78,2v4.87H46.2a2.49,2.49,0,0,1,2.55,2.55,2.35,2.35,0,0,1-.73,1.8,2.5,2.5,0,0,1-1.82.7Z" style="fill:#4f5865"/><path d="M60.91,51.46a2.66,2.66,0,0,1-2,.81A2.59,2.59,0,0,1,57,51.46a2.76,2.76,0,0,1-.78-2V24.37a2.74,2.74,0,0,1,.78-2,2.6,2.6,0,0,1,1.94-.82,2.67,2.67,0,0,1,2,.82,2.74,2.74,0,0,1,.78,2V49.48A2.76,2.76,0,0,1,60.91,51.46Z" style="fill:#4f5865"/><path d="M90.7,22.63c2,1,3,2.2,3,3.71a2.75,2.75,0,0,1-.64,1.77,2,2,0,0,1-1.62.78,2.47,2.47,0,0,1-1.19-.23,13.23,13.23,0,0,1-1.19-.75A5.9,5.9,0,0,0,88,27.1a7.27,7.27,0,0,0-2-.58,12.61,12.61,0,0,0-2.32-.24,10.12,10.12,0,0,0-5.33,1.4,9.42,9.42,0,0,0-3.6,3.85A11.76,11.76,0,0,0,73.51,37a11.92,11.92,0,0,0,1.24,5.51,9.42,9.42,0,0,0,3.51,3.83,9.63,9.63,0,0,0,5.16,1.39,11,11,0,0,0,4.88-.93,11,11,0,0,0,1.1-.75,6.08,6.08,0,0,1,1-.69,2.21,2.21,0,0,1,1.08-.24,2.32,2.32,0,0,1,1.82.73A2.64,2.64,0,0,1,94,47.74a3.2,3.2,0,0,1-1.54,2.41,12.35,12.35,0,0,1-4.12,1.94,19.35,19.35,0,0,1-5.53.76A14.65,14.65,0,0,1,75,50.79a13.8,13.8,0,0,1-5.19-5.69A17.66,17.66,0,0,1,68,37a17,17,0,0,1,1.91-8.09,14.26,14.26,0,0,1,5.34-5.68,14.91,14.91,0,0,1,7.83-2.06A17.64,17.64,0,0,1,90.7,22.63Z" style="fill:#4f5865"/><path d="M125.77,45.19a14.9,14.9,0,0,1-5.54,5.63,15.79,15.79,0,0,1-15.49,0,14.76,14.76,0,0,1-5.54-5.63,16.26,16.26,0,0,1-2-8.12,16.62,16.62,0,0,1,2-8.18,14.62,14.62,0,0,1,5.54-5.68,15.79,15.79,0,0,1,15.49,0,14.76,14.76,0,0,1,5.54,5.68,16.62,16.62,0,0,1,2,8.18A16.26,16.26,0,0,1,125.77,45.19ZM121,31.47a9.68,9.68,0,0,0-3.54-3.82,9.66,9.66,0,0,0-9.92,0A9.73,9.73,0,0,0,104,31.47a11.81,11.81,0,0,0-1.31,5.6A11.47,11.47,0,0,0,104,42.58a9.74,9.74,0,0,0,3.53,3.8,9.72,9.72,0,0,0,9.92,0,9.69,9.69,0,0,0,3.54-3.8,11.47,11.47,0,0,0,1.31-5.51A11.81,11.81,0,0,0,121,31.47Z" style="fill:#4f5865"/><path d="M178.28,34V49.48a2.74,2.74,0,0,1-.76,2,2.58,2.58,0,0,1-2,.79,2.66,2.66,0,0,1-2-.81,2.76,2.76,0,0,1-.78-2V34.06q0-7.61-6.38-7.6a8.35,8.35,0,0,0-4.09,1,7.32,7.32,0,0,0-2.84,2.76,7.42,7.42,0,0,0-1,3.83V49.48a2.76,2.76,0,0,1-.78,2,2.66,2.66,0,0,1-2,.81,2.58,2.58,0,0,1-2-.79,2.74,2.74,0,0,1-.76-2V34a9.31,9.31,0,0,0-1.45-5.48c-1-1.38-2.57-2.06-4.81-2.06A7.79,7.79,0,0,0,141,28.63,7.19,7.19,0,0,0,138.78,34V49.48a2.76,2.76,0,0,1-.78,2,2.66,2.66,0,0,1-2,.81,2.61,2.61,0,0,1-2-.79,2.77,2.77,0,0,1-.75-2V24.66a2.74,2.74,0,0,1,.78-2,2.6,2.6,0,0,1,1.95-.82,2.67,2.67,0,0,1,2,.82,2.74,2.74,0,0,1,.78,2v2a12.68,12.68,0,0,1,4-3.8,10.38,10.38,0,0,1,5.48-1.54q7.2,0,9.34,6.38a12.28,12.28,0,0,1,4.23-4.4,11.1,11.1,0,0,1,6.27-2Q178.27,21.35,178.28,34Z" style="fill:#4f5865"/><path d="M105.62,0H84.08c-1.32-.1-14.7.36-20.88,7.33a18.27,18.27,0,0,0-4.63,8.51.76.76,0,0,0,.29.78c8-10.57,22-10.27,22-10.27h21.7l4-4.24A1.28,1.28,0,0,0,105.62,0Z" style="fill:#39a57a"/><path d="M59.73,16.71a.83.83,0,0,0,.15-.11c5.71-5.79,21.84-5.09,21.84-5.09L96.3,11.4a3.65,3.65,0,0,0,2.75-1.27l3.55-3.77H80.9s-14-.3-22,10.27a.76.76,0,0,0,.54.19" style="fill:#126a5e;isolation:isolate;opacity:0.999000012874603"/></svg>