<svg id="Layer_1" data-name="Layer 1" xmlns="http://www.w3.org/2000/svg" width="62.89mm" height="18.52mm" viewBox="0 0 178.28 52.5"><path d="M27.67,37.33a2.77,2.77,0,0,1-1.92.73H5.34a10.09,10.09,0,0,0,3.21,6.78,9.85,9.85,0,0,0,6.88,2.56A10.62,10.62,0,0,0,20,46.58,11.36,11.36,0,0,0,23,44.5,3.26,3.26,0,0,1,24.71,44a2.21,2.21,0,0,1,1.65.7A2.29,2.29,0,0,1,27,46.29a2.88,2.88,0,0,1-1.16,2.21,13.58,13.58,0,0,1-4.47,2.84,14.68,14.68,0,0,1-5.68,1.16,16.88,16.88,0,0,1-8.27-2A13.78,13.78,0,0,1,1.94,45,16.43,16.43,0,0,1,0,37a17.7,17.7,0,0,1,2-8.55A14.46,14.46,0,0,1,7.28,22.8a13.59,13.59,0,0,1,14-.05A14.57,14.57,0,0,1,26.51,28a15.15,15.15,0,0,1,2,7.54A2.48,2.48,0,0,1,27.67,37.33Zm-19-9.57a9,9,0,0,0-3.13,5.66H22.68V33a7.09,7.09,0,0,0-2.76-5,8.68,8.68,0,0,0-5.59-2A9,9,0,0,0,8.7,27.76Z" style="fill:#fff"/><path d="M41.38,26.92V44.21c0,1.93.87,2.9,2.61,2.9a4,4,0,0,0,1.1-.21,4.51,4.51,0,0,1,1.11-.2,1.58,1.58,0,0,1,1.27.64,2.44,2.44,0,0,1-.87,3.71,5.79,5.79,0,0,1-3.13.87A13.75,13.75,0,0,1,40,51.51a5.2,5.2,0,0,1-2.84-2,8.34,8.34,0,0,1-1.25-5V26.92H32.51A2.46,2.46,0,0,1,30,24.37a2.41,2.41,0,0,1,.72-1.8,2.54,2.54,0,0,1,1.83-.69h3.36V17a2.71,2.71,0,0,1,.79-2,2.64,2.64,0,0,1,2-.81A2.59,2.59,0,0,1,40.6,15a2.74,2.74,0,0,1,.78,2v4.88H46.2a2.48,2.48,0,0,1,2.55,2.55,2.38,2.38,0,0,1-.73,1.8,2.53,2.53,0,0,1-1.82.69Z" style="fill:#fff"/><path d="M60.91,51.11a2.66,2.66,0,0,1-2,.81A2.59,2.59,0,0,1,57,51.11a2.74,2.74,0,0,1-.78-2V24a2.74,2.74,0,0,1,.78-2,2.59,2.59,0,0,1,1.94-.81,2.66,2.66,0,0,1,2,.81,2.74,2.74,0,0,1,.78,2V49.14A2.74,2.74,0,0,1,60.91,51.11Z" style="fill:#fff"/><path d="M90.7,22.28q3,1.45,3,3.71a2.75,2.75,0,0,1-.64,1.77,2,2,0,0,1-1.62.79,2.46,2.46,0,0,1-1.19-.24,11.27,11.27,0,0,1-1.19-.75,6.38,6.38,0,0,0-1.1-.81,7.64,7.64,0,0,0-2-.58,12.54,12.54,0,0,0-2.32-.23,10.11,10.11,0,0,0-5.33,1.39,9.45,9.45,0,0,0-3.6,3.86,11.74,11.74,0,0,0-1.27,5.48,12,12,0,0,0,1.24,5.51A9.39,9.39,0,0,0,78.26,46a9.64,9.64,0,0,0,5.16,1.4,11,11,0,0,0,4.88-.93c.27-.16.63-.41,1.1-.76a6.77,6.77,0,0,1,1-.69,2.21,2.21,0,0,1,1.08-.23,2.35,2.35,0,0,1,1.82.72A2.67,2.67,0,0,1,94,47.4a3.2,3.2,0,0,1-1.54,2.4,12.35,12.35,0,0,1-4.12,2,19.71,19.71,0,0,1-5.53.75A14.65,14.65,0,0,1,75,50.44a13.84,13.84,0,0,1-5.19-5.68A17.72,17.72,0,0,1,68,36.67a17,17,0,0,1,1.91-8.09,14.22,14.22,0,0,1,5.34-5.69,14.91,14.91,0,0,1,7.83-2.06A17.79,17.79,0,0,1,90.7,22.28Z" style="fill:#fff"/><path d="M125.77,44.84a14.83,14.83,0,0,1-5.54,5.63,15.79,15.79,0,0,1-15.49,0,14.69,14.69,0,0,1-5.54-5.63,16.23,16.23,0,0,1-2-8.12,16.56,16.56,0,0,1,2-8.17,14.65,14.65,0,0,1,5.54-5.69,15.79,15.79,0,0,1,15.49,0,14.78,14.78,0,0,1,5.54,5.69,16.56,16.56,0,0,1,2,8.17A16.23,16.23,0,0,1,125.77,44.84ZM121,31.13a9.65,9.65,0,0,0-3.54-3.83,9.72,9.72,0,0,0-9.92,0A9.69,9.69,0,0,0,104,31.13a11.77,11.77,0,0,0-1.31,5.59A11.47,11.47,0,0,0,104,42.23a9.68,9.68,0,0,0,3.53,3.8,9.66,9.66,0,0,0,9.92,0,9.63,9.63,0,0,0,3.54-3.8,11.47,11.47,0,0,0,1.31-5.51A11.77,11.77,0,0,0,121,31.13Z" style="fill:#fff"/><path d="M178.28,33.65V49.14a2.74,2.74,0,0,1-.76,2,2.61,2.61,0,0,1-2,.78,2.66,2.66,0,0,1-2-.81,2.74,2.74,0,0,1-.78-2V33.71q0-7.6-6.38-7.6a8.25,8.25,0,0,0-4.09,1,7.23,7.23,0,0,0-2.84,2.75,7.44,7.44,0,0,0-1,3.83V49.14a2.74,2.74,0,0,1-.78,2,2.66,2.66,0,0,1-2,.81,2.61,2.61,0,0,1-2-.78,2.74,2.74,0,0,1-.76-2V33.65a9.31,9.31,0,0,0-1.45-5.48q-1.46-2.05-4.81-2.06A7.79,7.79,0,0,0,141,28.29a7.17,7.17,0,0,0-2.23,5.36V49.14a2.74,2.74,0,0,1-.78,2,2.89,2.89,0,0,1-4,0,2.77,2.77,0,0,1-.75-2V24.31a2.74,2.74,0,0,1,.78-2,2.6,2.6,0,0,1,1.95-.81,2.66,2.66,0,0,1,2,.81,2.74,2.74,0,0,1,.78,2v2a12.68,12.68,0,0,1,4-3.8A10.37,10.37,0,0,1,148.29,21q7.2,0,9.34,6.38A12.23,12.23,0,0,1,161.86,23a11.08,11.08,0,0,1,6.27-2Q178.27,21,178.28,33.65Z" style="fill:#fff"/><path d="M106.19,0H84.65C83.33-.09,70,.37,63.77,7.34a18.18,18.18,0,0,0-4.63,8.51.76.76,0,0,0,.29.78c8.05-10.57,22-10.27,22-10.27h21.7l4-4.24A1.29,1.29,0,0,0,106.19,0Z" style="fill:#39a57a"/><path d="M60.3,16.71a1.43,1.43,0,0,0,.15-.11c5.7-5.79,21.83-5.09,21.83-5.09l14.58-.11a3.64,3.64,0,0,0,2.75-1.27l3.56-3.77H81.47s-14-.3-22,10.27a.75.75,0,0,0,.53.19" style="fill:#126a5e;isolation:isolate;opacity:0.999000012874603"/></svg>