<?xml version="1.0" encoding="utf-8"?>
<!-- Generator: Adobe Illustrator 25.4.1, SVG Export Plug-In . SVG Version: 6.00 Build 0)  -->
<svg version="1.1" id="Layer_1" xmlns="http://www.w3.org/2000/svg" xmlns:xlink="http://www.w3.org/1999/xlink" x="0px" y="0px"
	 viewBox="0 0 288 111.5" style="enable-background:new 0 0 288 111.5;" xml:space="preserve">
<style type="text/css">
	.st0{enable-background:new    ;}
	.st1{fill:#333E48;}
	.st2{fill:#313F4C;}
	.st3{fill:url(#SVGID_1_);}
</style>
<g>
	<g class="st0">
		<path class="st1" d="M138.1,81.6c1.1,0,1.6,0.6,1.6,1.7v14c0,7.1-3.3,10.1-9.6,10.1c-3.6,0-6.5-1.3-8.1-3.6
			c-0.7-1-0.2-1.8,0.9-2.1l0.4-0.1c0.9-0.2,1.5,0.1,2.1,0.9c1.1,1.3,2.8,2,4.8,2c3.7,0,5.8-1.8,5.8-6.6v-1.6
			c-1.1,2.5-3.7,3.9-6.7,3.9c-4.7,0-8.7-3.1-8.7-9.4c0-6.2,4-9.4,8.6-9.4c3,0,5.6,1.4,6.7,3.9v-1.9c0-1.1,0.6-1.7,1.7-1.7H138.1
			L138.1,81.6z M136.1,90.7c0-4.1-2.3-6.5-5.9-6.5c-3.5,0-5.8,2.5-5.8,6.5c0,4.1,2.3,6.6,5.9,6.6C133.7,97.3,136.1,94.8,136.1,90.7z
			"/>
		<path class="st1" d="M152.8,81.4c1.1,0,1.7,0.7,1.6,1.8l0,0.3c-0.1,1.1-0.7,1.5-1.8,1.5c-3.1,0.1-4.6,2.3-4.6,6.3v7.7
			c0,1.1-0.6,1.7-1.6,1.7h-0.4c-1.1,0-1.7-0.6-1.7-1.7V83.3c0-1.1,0.6-1.7,1.7-1.7h0.4c1.1,0,1.6,0.6,1.6,1.6v1.6
			C148.5,83.1,150,81.4,152.8,81.4L152.8,81.4z"/>
		<path class="st1" d="M155,91.1c0-6.8,4.7-9.8,9.5-9.8c4.8,0,9.6,3,9.6,9.8c0,6.9-4.7,9.9-9.5,9.9C159.7,100.9,155,97.9,155,91.1z
			 M170.4,91.1c0-4.1-2.4-6.7-5.9-6.7c-3.5,0-5.8,2.5-5.8,6.7c0,4.2,2.3,6.7,5.9,6.7C168.1,97.8,170.4,95.2,170.4,91.1z"/>
		<path class="st1" d="M193.3,81.6c1.1,0,1.7,0.6,1.7,1.6v15.6c0,1.1-0.6,1.7-1.7,1.7h-0.4c-1.1,0-1.7-0.6-1.7-1.7V97
			c-0.9,2.2-3,3.9-6.2,3.9c-5.2,0-7.6-3-7.6-9v-8.6c0-1.1,0.6-1.7,1.7-1.7h0.4c1.1,0,1.7,0.6,1.7,1.7v8.3c0,4.1,1.6,6.1,5.1,6.1
			c3.6,0,5-2.3,5-6.5v-7.9c0-1.1,0.6-1.7,1.7-1.7L193.3,81.6L193.3,81.6z"/>
		<path class="st1" d="M199.4,105V83.3c0-1.1,0.6-1.7,1.7-1.7h0.4c1.1,0,1.7,0.6,1.7,1.7v1.9c1-2.4,3.5-4,6.7-4c4.4,0,8.6,3,8.6,9.8
			c0,6.8-4.3,9.8-8.7,9.8c-3.2,0-5.7-1.6-6.7-4v8.2c0,1.1-0.6,1.6-1.7,1.6h-0.4C200,106.6,199.4,106,199.4,105z M214.8,91
			c0-4.2-2.3-6.7-5.8-6.7c-3.5,0-5.9,2.5-5.9,6.7c0,4.2,2.4,6.7,5.8,6.7C212.4,97.7,214.8,95.2,214.8,91z"/>
	</g>
	<g class="st0">
		<path class="st2" d="M125,61.4v1.9c0,1.1-0.6,1.7-1.7,1.7H123c-1.1,0-1.7-0.6-1.7-1.7V41.7c0-1.1,0.6-1.7,1.7-1.7h0.4
			c1.1,0,1.7,0.6,1.7,1.7v8.2c1.1-2.6,3.7-4,6.7-4c4.7,0,8.7,3.3,8.7,9.8c0,6.5-4,9.9-8.6,9.9C128.7,65.4,126.1,64,125,61.4z
			 M136.7,55.6c0-4.1-2.4-6.7-5.9-6.7c-3.5,0-5.8,2.5-5.8,6.7c0,4.2,2.4,6.7,5.9,6.7C134.3,62.3,136.7,59.7,136.7,55.6z"/>
		<path class="st2" d="M159.5,46.1c1.1,0,1.7,0.6,1.7,1.6v15.6c0,1.1-0.6,1.7-1.7,1.7h-0.4c-1.1,0-1.7-0.6-1.7-1.7v-1.9
			c-0.9,2.2-3,3.9-6.2,3.9c-5.2,0-7.6-3-7.6-9v-8.6c0-1.1,0.6-1.7,1.7-1.7h0.4c1.1,0,1.7,0.6,1.7,1.7v8.3c0,4.1,1.6,6.1,5.1,6.1
			c3.6,0,5-2.3,5-6.5v-7.9c0-1.1,0.6-1.7,1.7-1.7L159.5,46.1L159.5,46.1z"/>
		<path class="st2" d="M165.4,41.6c0-1.3,0.9-2,2.2-2c1.2,0,2.2,0.7,2.2,2s-1,2-2.2,2C166.3,43.6,165.4,42.9,165.4,41.6z
			 M165.7,63.4V47.8c0-1.1,0.6-1.7,1.6-1.7h0.4c1,0,1.6,0.6,1.6,1.7v15.6c0,1.1-0.6,1.7-1.6,1.7h-0.4
			C166.2,65,165.7,64.4,165.7,63.4z"/>
		<path class="st2" d="M173.8,63.4V41.7c0-1.1,0.6-1.7,1.7-1.7h0.4c1.1,0,1.6,0.6,1.6,1.7v21.7c0,1.1-0.6,1.7-1.6,1.7h-0.4
			C174.3,65,173.8,64.4,173.8,63.4z"/>
		<path class="st2" d="M181.2,55.6c0-6.5,4-9.8,8.6-9.8c3,0,5.6,1.5,6.7,4.1v-8.2c0-1.1,0.6-1.7,1.7-1.7h0.4c1.1,0,1.7,0.6,1.7,1.7
			v21.7c0,1.1-0.6,1.7-1.7,1.7h-0.4c-1.1,0-1.7-0.6-1.7-1.7v-1.9c-1.1,2.5-3.7,4-6.7,4C185.2,65.4,181.2,62.1,181.2,55.6z
			 M196.6,55.6c0-4.1-2.4-6.7-5.9-6.7c-3.5,0-5.8,2.5-5.8,6.7c0,4.2,2.4,6.7,5.9,6.7C194.3,62.3,196.6,59.7,196.6,55.6z"/>
		<path class="st2" d="M204.4,41.6c0-1.3,0.9-2,2.2-2c1.2,0,2.2,0.7,2.2,2s-1,2-2.2,2C205.3,43.6,204.4,42.9,204.4,41.6z
			 M204.7,63.4V47.8c0-1.1,0.6-1.7,1.6-1.7h0.4c1,0,1.6,0.6,1.6,1.7v15.6c0,1.1-0.6,1.7-1.6,1.7h-0.4
			C205.3,65,204.7,64.4,204.7,63.4z"/>
		<path class="st2" d="M230.3,54.8v8.6c0,1.1-0.6,1.7-1.6,1.7h-0.4c-1.1,0-1.7-0.6-1.7-1.7v-8.3c0-4.1-1.6-6.1-5.1-6.1
			c-3.6,0-5,2.3-5,6.5v7.9c0,1.1-0.6,1.7-1.7,1.7h-0.4c-1.1,0-1.7-0.6-1.7-1.7V47.8c0-1.1,0.6-1.7,1.7-1.7h0.4
			c1.1,0,1.7,0.6,1.7,1.7v1.9c0.9-2.2,3-3.9,6.2-3.9C227.9,45.8,230.3,48.8,230.3,54.8z"/>
		<path class="st2" d="M251,46.1c1.1,0,1.6,0.6,1.6,1.7v14c0,7.1-3.3,10.1-9.6,10.1c-3.6,0-6.5-1.3-8.1-3.6c-0.7-1-0.2-1.8,0.9-2.1
			l0.4-0.1c0.9-0.2,1.5,0.1,2.1,0.9c1.1,1.3,2.8,2,4.8,2c3.7,0,5.8-1.8,5.8-6.6v-1.6c-1.1,2.5-3.7,3.9-6.7,3.9
			c-4.7,0-8.7-3.1-8.7-9.4c0-6.2,4-9.4,8.6-9.4c3,0,5.6,1.4,6.7,3.9v-1.9c0-1.1,0.6-1.7,1.7-1.7H251L251,46.1z M249,55.2
			c0-4.1-2.3-6.5-5.9-6.5c-3.5,0-5.8,2.5-5.8,6.5c0,4.1,2.3,6.6,5.9,6.6C246.7,61.8,249,59.3,249,55.2z"/>
	</g>
	<g class="st0">
		<path class="st2" d="M138.1,81.6c1.1,0,1.6,0.6,1.6,1.7v14c0,7.1-3.3,10.1-9.6,10.1c-3.6,0-6.5-1.3-8.1-3.6
			c-0.7-1-0.2-1.8,0.9-2.1l0.4-0.1c0.9-0.2,1.5,0.1,2.1,0.9c1.1,1.3,2.8,2,4.8,2c3.7,0,5.8-1.8,5.8-6.6v-1.6
			c-1.1,2.5-3.7,3.9-6.7,3.9c-4.7,0-8.7-3.1-8.7-9.4c0-6.2,4-9.4,8.6-9.4c3,0,5.6,1.4,6.7,3.9v-1.9c0-1.1,0.6-1.7,1.7-1.7H138.1
			L138.1,81.6z M136.1,90.7c0-4.1-2.3-6.5-5.9-6.5c-3.5,0-5.8,2.5-5.8,6.5c0,4.1,2.3,6.6,5.9,6.6C133.7,97.3,136.1,94.8,136.1,90.7z
			"/>
		<path class="st2" d="M152.8,81.4c1.1,0,1.7,0.7,1.6,1.8l0,0.3c-0.1,1.1-0.7,1.5-1.8,1.5c-3.1,0.1-4.6,2.3-4.6,6.3v7.7
			c0,1.1-0.6,1.7-1.6,1.7h-0.4c-1.1,0-1.7-0.6-1.7-1.7V83.3c0-1.1,0.6-1.7,1.7-1.7h0.4c1.1,0,1.6,0.6,1.6,1.6v1.6
			C148.5,83.1,150,81.4,152.8,81.4L152.8,81.4z"/>
		<path class="st2" d="M155,91.1c0-6.8,4.7-9.8,9.5-9.8c4.8,0,9.6,3,9.6,9.8c0,6.9-4.7,9.9-9.5,9.9C159.7,100.9,155,97.9,155,91.1z
			 M170.4,91.1c0-4.1-2.4-6.7-5.9-6.7c-3.5,0-5.8,2.5-5.8,6.7c0,4.2,2.3,6.7,5.9,6.7C168.1,97.8,170.4,95.2,170.4,91.1z"/>
		<path class="st2" d="M193.3,81.6c1.1,0,1.6,0.6,1.6,1.6v15.6c0,1.1-0.6,1.7-1.6,1.7h-0.4c-1.1,0-1.7-0.6-1.7-1.7V97
			c-0.9,2.2-3,3.9-6.2,3.9c-5.2,0-7.6-3-7.6-9v-8.6c0-1.1,0.6-1.7,1.7-1.7h0.4c1.1,0,1.7,0.6,1.7,1.7v8.3c0,4.1,1.6,6.1,5.1,6.1
			c3.6,0,5-2.3,5-6.5v-7.9c0-1.1,0.6-1.7,1.7-1.7L193.3,81.6L193.3,81.6z"/>
		<path class="st2" d="M199.4,105V83.3c0-1.1,0.6-1.7,1.7-1.7h0.4c1.1,0,1.7,0.6,1.7,1.7v1.9c1-2.4,3.5-4,6.7-4c4.4,0,8.6,3,8.6,9.8
			c0,6.8-4.3,9.8-8.7,9.8c-3.2,0-5.7-1.6-6.7-4v8.2c0,1.1-0.6,1.6-1.7,1.6h-0.4C200,106.6,199.4,106,199.4,105z M214.8,91
			c0-4.2-2.3-6.7-5.8-6.7c-3.5,0-5.9,2.5-5.9,6.7c0,4.2,2.4,6.7,5.8,6.7C212.4,97.7,214.8,95.2,214.8,91z"/>
	</g>
	<g class="st0">
		<path class="st2" d="M121,6.1c0-1.3,0.9-2,2.2-2c1.2,0,2.2,0.7,2.2,2s-1,2-2.2,2C121.9,8.1,121,7.4,121,6.1z M121.3,27.9V12.3
			c0-1.1,0.6-1.7,1.6-1.7h0.4c1,0,1.6,0.6,1.6,1.7v15.6c0,1.1-0.6,1.7-1.6,1.7h-0.4C121.9,29.5,121.3,28.9,121.3,27.9z"/>
		<path class="st2" d="M139.3,10.3c5.2,0,7.6,3,7.6,9v8.6c0,1.1-0.6,1.7-1.6,1.7h-0.4c-1.1,0-1.6-0.6-1.6-1.7v-8.3
			c0-4.1-1.6-6.1-5.1-6.1c-3.6,0-5,2.3-5,6.5v7.9c0,1.1-0.6,1.7-1.7,1.7h-0.4c-1.1,0-1.6-0.6-1.6-1.7V12.3c0-1.1,0.6-1.7,1.6-1.7
			h0.4c1.1,0,1.7,0.6,1.7,1.7v1.9C134,12,136.1,10.3,139.3,10.3L139.3,10.3z"/>
		<path class="st2" d="M158.7,29.8c-4.9,0-7.1-2-7.1-7.8v-8.5h-1.1c-1.1,0-1.7-0.5-1.7-1.5s0.5-1.4,1.4-1.4h1.4v-2
			c0-1,0.5-1.6,1.5-1.8l0.5-0.1c1.2-0.3,1.8,0.3,1.8,1.5v2.4h3.9c1.1,0,1.7,0.5,1.7,1.4s-0.6,1.5-1.7,1.5h-3.9v8.1
			c0,3.9,1,5.2,3.9,5.2c1,0,1.7,0.4,1.8,1.3c0.1,1-0.3,1.6-1.4,1.7C159.4,29.8,159,29.8,158.7,29.8L158.7,29.8z"/>
		<path class="st2" d="M162.6,20.1c0-5.8,3.9-9.8,9.5-9.8c5.5,0,9,3.7,9.2,9.1c0,1.1-0.6,1.7-1.7,1.7h-13.4c0.1,3.7,2.4,5.7,6.1,5.7
			c2,0,3.3-0.5,4.5-1.6c0.7-0.6,1.2-1.2,2.1-0.9l0.4,0.1c1.2,0.3,1.4,0.9,0.8,1.8c-1.7,2.4-4.3,3.7-7.9,3.7
			C166.4,29.9,162.6,26,162.6,20.1z M177.8,18.1c-0.3-3-2.3-4.9-5.6-4.9c-3.2,0-5.4,1.7-5.8,4.9H177.8z"/>
		<path class="st2" d="M185,27.9V6.2c0-1.1,0.6-1.7,1.7-1.7h0.4c1.1,0,1.6,0.6,1.6,1.7v21.7c0,1.1-0.6,1.7-1.6,1.7h-0.4
			C185.6,29.5,185,28.9,185,27.9z"/>
		<path class="st2" d="M193.1,27.9V6.2c0-1.1,0.6-1.7,1.7-1.7h0.4c1.1,0,1.7,0.6,1.7,1.7v21.7c0,1.1-0.6,1.7-1.7,1.7h-0.4
			C193.7,29.5,193.1,28.9,193.1,27.9z"/>
		<path class="st2" d="M200.9,6.1c0-1.3,0.9-2,2.2-2c1.2,0,2.2,0.7,2.2,2s-1,2-2.2,2C201.8,8.1,200.9,7.4,200.9,6.1z M201.2,27.9
			V12.3c0-1.1,0.6-1.7,1.6-1.7h0.4c1,0,1.6,0.6,1.6,1.7v15.6c0,1.1-0.6,1.7-1.6,1.7h-0.4C201.8,29.5,201.2,28.9,201.2,27.9z"/>
		<path class="st2" d="M226,10.6c1.1,0,1.6,0.6,1.6,1.7v14c0,7.1-3.3,10.1-9.6,10.1c-3.6,0-6.5-1.3-8.1-3.6c-0.7-1-0.2-1.8,0.9-2.1
			l0.4-0.1c0.9-0.2,1.5,0.1,2.1,0.9c1.1,1.3,2.8,2,4.8,2c3.7,0,5.8-1.8,5.8-6.6v-1.6c-1.1,2.5-3.7,3.9-6.7,3.9
			c-4.7,0-8.7-3.1-8.7-9.4c0-6.2,4-9.4,8.6-9.4c3,0,5.6,1.4,6.7,3.9v-1.9c0-1.1,0.6-1.7,1.7-1.7H226L226,10.6z M224,19.7
			c0-4.1-2.3-6.5-5.9-6.5c-3.5,0-5.8,2.5-5.8,6.5c0,4.1,2.3,6.6,5.9,6.6C221.7,26.3,224,23.8,224,19.7z"/>
		<path class="st2" d="M231.5,20.1c0-5.8,3.9-9.8,9.5-9.8c5.5,0,9,3.7,9.2,9.1c0,1.1-0.6,1.7-1.7,1.7h-13.4c0.1,3.7,2.4,5.7,6.1,5.7
			c2,0,3.3-0.5,4.5-1.6c0.7-0.6,1.2-1.2,2.1-0.9l0.4,0.1c1.2,0.3,1.4,0.9,0.8,1.8c-1.7,2.4-4.3,3.7-7.9,3.7
			C235.4,29.9,231.5,26,231.5,20.1z M246.8,18.1c-0.3-3-2.3-4.9-5.6-4.9c-3.2,0-5.4,1.7-5.8,4.9H246.8z"/>
		<path class="st2" d="M271.5,19.3v8.6c0,1.1-0.6,1.7-1.6,1.7h-0.4c-1.1,0-1.7-0.6-1.7-1.7v-8.3c0-4.1-1.6-6.1-5.1-6.1
			c-3.6,0-5,2.3-5,6.5v7.9c0,1.1-0.6,1.7-1.7,1.7h-0.4c-1.1,0-1.7-0.6-1.7-1.7V12.3c0-1.1,0.6-1.7,1.7-1.7h0.4
			c1.1,0,1.7,0.6,1.7,1.7v1.9c0.9-2.2,3-3.9,6.2-3.9C269.1,10.3,271.5,13.3,271.5,19.3z"/>
		<path class="st2" d="M283.3,29.8c-4.9,0-7.1-2-7.1-7.8v-8.5h-1.1c-1.1,0-1.7-0.5-1.7-1.5s0.5-1.4,1.4-1.4h1.4v-2
			c0-1,0.5-1.6,1.5-1.8l0.5-0.1c1.2-0.3,1.8,0.3,1.8,1.5v2.4h3.9c1.1,0,1.7,0.5,1.7,1.4s-0.6,1.5-1.7,1.5H280v8.1
			c0,3.9,1,5.2,3.9,5.2c1,0,1.7,0.4,1.8,1.3c0.1,1-0.3,1.6-1.4,1.7C283.9,29.8,283.6,29.8,283.3,29.8L283.3,29.8z"/>
	</g>
	
		<linearGradient id="SVGID_1_" gradientUnits="userSpaceOnUse" x1="2.1365" y1="317.6241" x2="108.5365" y2="317.6241" gradientTransform="matrix(1 0 0 1 0 -261.8741)">
		<stop  offset="0" style="stop-color:#BEDE18"/>
		<stop  offset="0.307" style="stop-color:#6FC164"/>
		<stop  offset="0.5681" style="stop-color:#33AA9D"/>
		<stop  offset="0.7593" style="stop-color:#0E9CC1"/>
		<stop  offset="0.8602" style="stop-color:#0097CE"/>
		<stop  offset="1" style="stop-color:#0097CE"/>
	</linearGradient>
	<path class="st3" d="M19.9,63c4-4,4-10.6,0-14.6s-10.6-4-14.6,0S1.3,59,5.3,63l0,0C9.3,67.1,15.8,67.1,19.9,63L19.9,63z M65.7,12.9
		c0,5.7-4.7,10.4-10.4,10.4s-10.4-4.7-10.4-10.4S49.6,2.5,55.3,2.5S65.7,7.2,65.7,12.9z M65.7,98.6c0,5.7-4.7,10.4-10.4,10.4
		s-10.4-4.7-10.4-10.4c0-5.7,4.7-10.4,10.4-10.4S65.7,92.9,65.7,98.6z M108.7,55.7c0,5.7-4.7,10.4-10.4,10.4c-3.6,0-6.7-1.8-8.5-4.5
		c-2.1-3-5.7-4.7-9.3-4.7h-7.2c-3.7,0-7.3,1.7-9.3,4.7c-1.9,2.7-5,4.5-8.5,4.5c-5.7,0-10.4-4.7-10.4-10.4l0,0
		c0-5.7,4.7-10.4,10.4-10.4c3.6,0,6.7,1.8,8.5,4.5c2.1,3,5.7,4.7,9.3,4.7h7.2c3.7,0,7.3-1.7,9.3-4.7c1.9-2.7,5-4.5,8.5-4.5
		C104,45.2,108.6,50,108.7,55.7L108.7,55.7z M87.2,34.4c0,5.7-4.7,10.4-10.4,10.4c-3.6,0-6.7-1.8-8.5-4.5c-2.1-3-5.7-4.7-9.3-4.7
		h-7.2c-3.7,0-7.3,1.7-9.3,4.7c-1.9,2.7-5,4.5-8.5,4.5c-5.7,0-10.4-4.7-10.4-10.4l0,0C23.6,28.7,28.3,24,34,24
		c3.6,0,6.7,1.8,8.5,4.5c2.1,3,5.7,4.7,9.3,4.7H59c3.7,0,7.3-1.7,9.3-4.7c1.9-2.7,5-4.5,8.5-4.5C82.5,24,87.1,28.6,87.2,34.4
		L87.2,34.4z M87.2,77.1c0,5.7-4.7,10.4-10.4,10.4c-3.6,0-6.7-1.8-8.5-4.5c-2.1-3-5.7-4.7-9.3-4.7h-7.2c-3.7,0-7.3,1.7-9.3,4.7
		c-1.9,2.7-5,4.5-8.5,4.5c-5.7,0-10.4-4.7-10.4-10.4l0,0c0-5.7,4.7-10.4,10.4-10.4c3.6,0,6.7,1.8,8.5,4.5c2.1,3,5.7,4.7,9.3,4.7H59
		c3.7,0,7.3-1.7,9.3-4.7c1.9-2.7,5-4.5,8.5-4.5C82.5,66.8,87.1,71.4,87.2,77.1L87.2,77.1z"/>
</g>
</svg>
